<?plantuml 1.2026.1?><svg xmlns="http://www.w3.org/2000/svg" xmlns:xlink="http://www.w3.org/1999/xlink" contentStyleType="text/css" data-diagram-type="CLASS" height="915px" preserveAspectRatio="none" style="width:2864px;height:915px;background:#FFFFFF;" version="1.1" viewBox="0 0 2864 915" width="2864px" zoomAndPan="magnify"><title>Liza &#8212; Code Diagram: MCP Server (internal/mcp)</title><defs/><g><g class="title" data-source-line="1"><text fill="#000000" font-family="sans-serif" font-size="14" font-weight="bold" lengthAdjust="spacing" textLength="385.7588" x="1232.1206" y="22.9951">Liza &#8212; Code Diagram: MCP Server (internal/mcp)</text></g><!--cluster MCP Server--><g class="cluster" data-qualified-name="MCP Server" data-source-line="3" id="ent0002"><path d="M876.5,43.2969 L968.8486,43.2969 A3.75,3.75 0 0 1 971.3486,45.7969 L978.3486,65.5938 L1353.5,65.5938 A2.5,2.5 0 0 1 1356,68.0938 L1356,554.6869 A2.5,2.5 0 0 1 1353.5,557.1869 L876.5,557.1869 A2.5,2.5 0 0 1 874,554.6869 L874,45.7969 A2.5,2.5 0 0 1 876.5,43.2969" fill="none" style="stroke:#000000;stroke-width:1.5;"/><line style="stroke:#000000;stroke-width:1.5;" x1="874" x2="978.3486" y1="65.5938" y2="65.5938"/><text fill="#000000" font-family="sans-serif" font-size="14" font-weight="bold" lengthAdjust="spacing" textLength="91.3486" x="878" y="58.292">MCP Server</text></g><!--cluster Protocol (internal/mcp/protocol)--><g class="cluster" data-qualified-name="Protocol .internal.mcp.protocol." data-source-line="27" id="ent0005"><path d="M1657.5,417.4469 L1912.7559,417.4469 A3.75,3.75 0 0 1 1915.2559,419.9469 L1922.2559,439.7438 L2475.5,439.7438 A2.5,2.5 0 0 1 2478,442.2438 L2478,579.1369 A2.5,2.5 0 0 1 2475.5,581.6369 L1657.5,581.6369 A2.5,2.5 0 0 1 1655,579.1369 L1655,419.9469 A2.5,2.5 0 0 1 1657.5,417.4469" fill="none" style="stroke:#000000;stroke-width:1.5;"/><line style="stroke:#000000;stroke-width:1.5;" x1="1655" x2="1922.2559" y1="439.7438" y2="439.7438"/><text fill="#000000" font-family="sans-serif" font-size="14" font-weight="bold" lengthAdjust="spacing" textLength="254.2559" x="1659" y="432.442">Protocol (internal/mcp/protocol)</text></g><!--cluster Tool Categories--><g class="cluster" data-qualified-name="Tool Categories" data-source-line="56" id="ent0010"><path d="M8.5,614.6369 L133.0391,614.6369 A3.75,3.75 0 0 1 135.5391,617.1369 L142.5391,636.9338 L2854.5,636.9338 A2.5,2.5 0 0 1 2857,639.4338 L2857,905.6669 A2.5,2.5 0 0 1 2854.5,908.1669 L8.5,908.1669 A2.5,2.5 0 0 1 6,905.6669 L6,617.1369 A2.5,2.5 0 0 1 8.5,614.6369" fill="none" style="stroke:#000000;stroke-width:1.5;"/><line style="stroke:#000000;stroke-width:1.5;" x1="6" x2="142.5391" y1="636.9338" y2="636.9338"/><text fill="#000000" font-family="sans-serif" font-size="14" font-weight="bold" lengthAdjust="spacing" textLength="123.5391" x="10" y="629.632">Tool Categories</text></g><!--cluster Read-Only--><g class="cluster" data-qualified-name="Tool Categories.Read-Only" data-source-line="57" id="ent0011"><path d="M32.5,657.6369 L114.8477,657.6369 A3.75,3.75 0 0 1 117.3477,660.1369 L124.3477,679.9338 L591.5,679.9338 A2.5,2.5 0 0 1 594,682.4338 L594,762.3969 A2.5,2.5 0 0 1 591.5,764.8969 L32.5,764.8969 A2.5,2.5 0 0 1 30,762.3969 L30,660.1369 A2.5,2.5 0 0 1 32.5,657.6369" fill="none" style="stroke:#000000;stroke-width:1.5;"/><line style="stroke:#000000;stroke-width:1.5;" x1="30" x2="124.3477" y1="679.9338" y2="679.9338"/><text fill="#000000" font-family="sans-serif" font-size="14" font-weight="bold" lengthAdjust="spacing" textLength="81.3477" x="34" y="672.632">Read-Only</text></g><!--cluster Mutations--><g class="cluster" data-qualified-name="Tool Categories.Mutations" data-source-line="64" id="ent0016"><path d="M620.5,657.6369 L700.9473,657.6369 A3.75,3.75 0 0 1 703.4473,660.1369 L710.4473,679.9338 L1726.5,679.9338 A2.5,2.5 0 0 1 1729,682.4338 L1729,881.6669 A2.5,2.5 0 0 1 1726.5,884.1669 L620.5,884.1669 A2.5,2.5 0 0 1 618,881.6669 L618,660.1369 A2.5,2.5 0 0 1 620.5,657.6369" fill="none" style="stroke:#000000;stroke-width:1.5;"/><line style="stroke:#000000;stroke-width:1.5;" x1="618" x2="710.4473" y1="679.9338" y2="679.9338"/><text fill="#000000" font-family="sans-serif" font-size="14" font-weight="bold" lengthAdjust="spacing" textLength="79.4473" x="622" y="672.632">Mutations</text></g><!--cluster Worktree Ops--><g class="cluster" data-qualified-name="Tool Categories.Worktree Ops" data-source-line="74" id="ent0024"><path d="M1755.5,657.6369 L1865.4922,657.6369 A3.75,3.75 0 0 1 1867.9922,660.1369 L1874.9922,679.9338 L2246.5,679.9338 A2.5,2.5 0 0 1 2249,682.4338 L2249,762.3969 A2.5,2.5 0 0 1 2246.5,764.8969 L1755.5,764.8969 A2.5,2.5 0 0 1 1753,762.3969 L1753,660.1369 A2.5,2.5 0 0 1 1755.5,657.6369" fill="none" style="stroke:#000000;stroke-width:1.5;"/><line style="stroke:#000000;stroke-width:1.5;" x1="1753" x2="1874.9922" y1="679.9338" y2="679.9338"/><text fill="#000000" font-family="sans-serif" font-size="14" font-weight="bold" lengthAdjust="spacing" textLength="108.9922" x="1757" y="672.632">Worktree Ops</text></g><!--cluster Admin--><g class="cluster" data-qualified-name="Tool Categories.Admin" data-source-line="80" id="ent0028"><path d="M2275.5,657.6369 L2326.71,657.6369 A3.75,3.75 0 0 1 2329.21,660.1369 L2336.21,679.9338 L2830.5,679.9338 A2.5,2.5 0 0 1 2833,682.4338 L2833,762.3969 A2.5,2.5 0 0 1 2830.5,764.8969 L2275.5,764.8969 A2.5,2.5 0 0 1 2273,762.3969 L2273,660.1369 A2.5,2.5 0 0 1 2275.5,657.6369" fill="none" style="stroke:#000000;stroke-width:1.5;"/><line style="stroke:#000000;stroke-width:1.5;" x1="2273" x2="2336.21" y1="679.9338" y2="679.9338"/><text fill="#000000" font-family="sans-serif" font-size="14" font-weight="bold" lengthAdjust="spacing" textLength="50.21" x="2277" y="672.632">Admin</text></g><!--class Server--><g class="entity" data-qualified-name="MCP Server.Server" data-source-line="4" id="ent0003"><rect fill="#F1F1F1" height="276.1563" rx="2.5" ry="2.5" style="stroke:#181818;stroke-width:0.5;" width="449.3838" x="890.31" y="78.2969"/><ellipse cx="1087.7968" cy="94.2969" fill="#ADD1B2" rx="11" ry="11" style="stroke:#181818;stroke-width:1;"/><path d="M1090.7656,99.9375 Q1090.1874,100.2344 1089.5468,100.375 Q1088.9062,100.5313 1088.2031,100.5313 Q1085.7031,100.5313 1084.3749,98.8906 Q1083.0624,97.2344 1083.0624,94.1094 Q1083.0624,90.9844 1084.3749,89.3281 Q1085.7031,87.6719 1088.2031,87.6719 Q1088.9062,87.6719 1089.5468,87.8281 Q1090.2031,87.9844 1090.7656,88.2813 L1090.7656,91 Q1090.1406,90.4219 1089.5468,90.1563 Q1088.9531,89.875 1088.3281,89.875 Q1086.9843,89.875 1086.2968,90.9531 Q1085.6093,92.0156 1085.6093,94.1094 Q1085.6093,96.2031 1086.2968,97.2813 Q1086.9843,98.3438 1088.3281,98.3438 Q1088.9531,98.3438 1089.5468,98.0781 Q1090.1406,97.7969 1090.7656,97.2188 L1090.7656,99.9375 Z " fill="#000000"/><text fill="#000000" font-family="sans-serif" font-size="14" lengthAdjust="spacing" textLength="45.9102" x="1108.2968" y="99.1436">Server</text><line style="stroke:#181818;stroke-width:0.5;" x1="891.31" x2="1338.6938" y1="110.2969" y2="110.2969"/><g data-visibility-modifier="PRIVATE_FIELD"><rect fill="none" height="6" style="stroke:#C82930;stroke-width:1;" width="6" x="898.31" y="120.9453"/></g><text fill="#000000" font-family="sans-serif" font-size="14" lengthAdjust="spacing" textLength="135.0508" x="910.31" y="127.292">projectRoot : string</text><g data-visibility-modifier="PRIVATE_FIELD"><rect fill="none" height="6" style="stroke:#C82930;stroke-width:1;" width="6" x="898.31" y="137.2422"/></g><text fill="#000000" font-family="sans-serif" font-size="14" lengthAdjust="spacing" textLength="106.5313" x="910.31" y="143.5889">logPath : string</text><g data-visibility-modifier="PRIVATE_FIELD"><rect fill="none" height="6" style="stroke:#C82930;stroke-width:1;" width="6" x="898.31" y="153.5391"/></g><text fill="#000000" font-family="sans-serif" font-size="14" lengthAdjust="spacing" textLength="116.9424" x="910.31" y="159.8857">bb : *Blackboard</text><g data-visibility-modifier="PRIVATE_FIELD"><rect fill="none" height="6" style="stroke:#C82930;stroke-width:1;" width="6" x="898.31" y="169.8359"/></g><text fill="#000000" font-family="sans-serif" font-size="14" lengthAdjust="spacing" textLength="159.209" x="910.31" y="176.1826">tools : map[string]Tool</text><g data-visibility-modifier="PRIVATE_FIELD"><rect fill="none" height="6" style="stroke:#C82930;stroke-width:1;" width="6" x="898.31" y="186.1328"/></g><text fill="#000000" font-family="sans-serif" font-size="14" lengthAdjust="spacing" textLength="229.4346" x="910.31" y="192.4795">resources : map[string]Resource</text><g data-visibility-modifier="PRIVATE_FIELD"><rect fill="none" height="6" style="stroke:#C82930;stroke-width:1;" width="6" x="898.31" y="202.4297"/></g><text fill="#000000" font-family="sans-serif" font-size="14" lengthAdjust="spacing" textLength="241.2949" x="910.31" y="208.7764">handlers : map[string]ToolHandler</text><line style="stroke:#181818;stroke-width:0.5;" x1="891.31" x2="1338.6938" y1="216.0781" y2="216.0781"/><g data-visibility-modifier="PUBLIC_METHOD"><ellipse cx="901.31" cy="229.7266" fill="#84BE84" rx="3" ry="3" style="stroke:#038048;stroke-width:1;"/></g><text fill="#000000" font-family="sans-serif" font-size="14" lengthAdjust="spacing" textLength="423.3838" x="910.31" y="233.0732">HandleRequest(req *JSONRPCRequest) : *JSONRPCResponse</text><g data-visibility-modifier="PUBLIC_METHOD"><ellipse cx="901.31" cy="246.0234" fill="#84BE84" rx="3" ry="3" style="stroke:#038048;stroke-width:1;"/></g><text fill="#000000" font-family="sans-serif" font-size="14" lengthAdjust="spacing" textLength="126.376" x="910.31" y="249.3701">ListTools() : []Tool</text><g data-visibility-modifier="PUBLIC_METHOD"><ellipse cx="901.31" cy="262.3203" fill="#84BE84" rx="3" ry="3" style="stroke:#038048;stroke-width:1;"/></g><text fill="#000000" font-family="sans-serif" font-size="14" lengthAdjust="spacing" textLength="197.5107" x="910.31" y="265.667">ListResources() : []Resource</text><g data-visibility-modifier="PUBLIC_METHOD"><ellipse cx="901.31" cy="278.6172" fill="#84BE84" rx="3" ry="3" style="stroke:#038048;stroke-width:1;"/></g><text fill="#000000" font-family="sans-serif" font-size="14" lengthAdjust="spacing" textLength="323.3877" x="910.31" y="281.9639">GetHandler(name string) : (ToolHandler, bool)</text><g data-visibility-modifier="PRIVATE_METHOD"><rect fill="#F24D5C" height="6" style="stroke:#C82930;stroke-width:1;" width="6" x="898.31" y="291.9141"/></g><text fill="#000000" font-family="sans-serif" font-size="14" lengthAdjust="spacing" textLength="169.9619" x="910.31" y="298.2607">registerReadOnlyTools()</text><g data-visibility-modifier="PRIVATE_METHOD"><rect fill="#F24D5C" height="6" style="stroke:#C82930;stroke-width:1;" width="6" x="898.31" y="308.2109"/></g><text fill="#000000" font-family="sans-serif" font-size="14" lengthAdjust="spacing" textLength="163.9258" x="910.31" y="314.5576">registerMutationTools()</text><g data-visibility-modifier="PRIVATE_METHOD"><rect fill="#F24D5C" height="6" style="stroke:#C82930;stroke-width:1;" width="6" x="898.31" y="324.5078"/></g><text fill="#000000" font-family="sans-serif" font-size="14" lengthAdjust="spacing" textLength="203.8408" x="910.31" y="330.8545">registerComplexOperations()</text><g data-visibility-modifier="PRIVATE_METHOD"><rect fill="#F24D5C" height="6" style="stroke:#C82930;stroke-width:1;" width="6" x="898.31" y="340.8047"/></g><text fill="#000000" font-family="sans-serif" font-size="14" lengthAdjust="spacing" textLength="205.5293" x="910.31" y="347.1514">registerReadOnlyResources()</text></g><!--class TH--><g class="entity" data-qualified-name="MCP Server.TH" data-source-line="22" id="ent0004"><rect fill="#F1F1F1" height="64.2969" rx="2.5" ry="2.5" style="stroke:#181818;stroke-width:0.5;" width="312.0566" x="958.97" y="476.8969"/><ellipse cx="1068.3997" cy="492.8969" fill="#B4A7E5" rx="11" ry="11" style="stroke:#181818;stroke-width:1;"/><path d="M1064.3216,488.6625 L1064.3216,486.5063 L1071.7122,486.5063 L1071.7122,488.6625 L1069.2434,488.6625 L1069.2434,496.7406 L1071.7122,496.7406 L1071.7122,498.8969 L1064.3216,498.8969 L1064.3216,496.7406 L1066.7903,496.7406 L1066.7903,488.6625 L1064.3216,488.6625 Z " fill="#000000"/><text fill="#000000" font-family="sans-serif" font-size="14" font-style="italic" lengthAdjust="spacing" textLength="84.6973" x="1088.8997" y="497.7436">ToolHandler</text><line style="stroke:#181818;stroke-width:0.5;" x1="959.97" x2="1270.0266" y1="508.8969" y2="508.8969"/><line style="stroke:#181818;stroke-width:0.5;" x1="959.97" x2="1270.0266" y1="516.8969" y2="516.8969"/><text fill="#000000" font-family="sans-serif" font-size="14" lengthAdjust="spacing" textLength="300.0566" x="964.97" y="533.892">func(params map[string]any) : (any, error)</text></g><!--class JSONRPCRequest--><g class="entity" data-qualified-name="Protocol .internal.mcp.protocol..JSONRPCRequest" data-source-line="28" id="ent0006"><rect fill="#F1F1F1" height="113.1875" rx="2.5" ry="2.5" style="stroke:#181818;stroke-width:0.5;" width="164.7148" x="1670.64" y="452.4469"/><ellipse cx="1691.3841" cy="468.4469" fill="#ADD1B2" rx="11" ry="11" style="stroke:#181818;stroke-width:1;"/><path d="M1694.3528,474.0875 Q1693.7747,474.3844 1693.1341,474.525 Q1692.4935,474.6813 1691.7903,474.6813 Q1689.2903,474.6813 1687.9622,473.0406 Q1686.6497,471.3844 1686.6497,468.2594 Q1686.6497,465.1344 1687.9622,463.4781 Q1689.2903,461.8219 1691.7903,461.8219 Q1692.4935,461.8219 1693.1341,461.9781 Q1693.7903,462.1344 1694.3528,462.4313 L1694.3528,465.15 Q1693.7278,464.5719 1693.1341,464.3063 Q1692.5403,464.025 1691.9153,464.025 Q1690.5716,464.025 1689.8841,465.1031 Q1689.1966,466.1656 1689.1966,468.2594 Q1689.1966,470.3531 1689.8841,471.4313 Q1690.5716,472.4938 1691.9153,472.4938 Q1692.5403,472.4938 1693.1341,472.2281 Q1693.7278,471.9469 1694.3528,471.3688 L1694.3528,474.0875 Z " fill="#000000"/><text fill="#000000" font-family="sans-serif" font-size="14" lengthAdjust="spacing" textLength="119.9502" x="1706.6606" y="473.2936">JSONRPCRequest</text><line style="stroke:#181818;stroke-width:0.5;" x1="1671.64" x2="1834.3548" y1="484.4469" y2="484.4469"/><text fill="#000000" font-family="sans-serif" font-size="14" lengthAdjust="spacing" textLength="116.2588" x="1676.64" y="501.442">JSONRPC : string</text><text fill="#000000" font-family="sans-serif" font-size="14" lengthAdjust="spacing" textLength="152.7148" x="1676.64" y="517.7389">ID : json.RawMessage</text><text fill="#000000" font-family="sans-serif" font-size="14" lengthAdjust="spacing" textLength="106.3125" x="1676.64" y="534.0357">Method : string</text><text fill="#000000" font-family="sans-serif" font-size="14" lengthAdjust="spacing" textLength="91.6426" x="1676.64" y="550.3326">Params : any</text><line style="stroke:#181818;stroke-width:0.5;" x1="1671.64" x2="1834.3548" y1="557.6344" y2="557.6344"/></g><!--class JSONRPCResponse--><g class="entity" data-qualified-name="Protocol .internal.mcp.protocol..JSONRPCResponse" data-source-line="35" id="ent0007"><rect fill="#F1F1F1" height="113.1875" rx="2.5" ry="2.5" style="stroke:#181818;stroke-width:0.5;" width="164.7148" x="1870.64" y="452.4469"/><ellipse cx="1886.7175" cy="468.4469" fill="#ADD1B2" rx="11" ry="11" style="stroke:#181818;stroke-width:1;"/><path d="M1889.6863,474.0875 Q1889.1082,474.3844 1888.4675,474.525 Q1887.8269,474.6813 1887.1238,474.6813 Q1884.6238,474.6813 1883.2957,473.0406 Q1881.9832,471.3844 1881.9832,468.2594 Q1881.9832,465.1344 1883.2957,463.4781 Q1884.6238,461.8219 1887.1238,461.8219 Q1887.8269,461.8219 1888.4675,461.9781 Q1889.1238,462.1344 1889.6863,462.4313 L1889.6863,465.15 Q1889.0613,464.5719 1888.4675,464.3063 Q1887.8738,464.025 1887.2488,464.025 Q1885.905,464.025 1885.2175,465.1031 Q1884.53,466.1656 1884.53,468.2594 Q1884.53,470.3531 1885.2175,471.4313 Q1885.905,472.4938 1887.2488,472.4938 Q1887.8738,472.4938 1888.4675,472.2281 Q1889.0613,471.9469 1889.6863,471.3688 L1889.6863,474.0875 Z " fill="#000000"/><text fill="#000000" font-family="sans-serif" font-size="14" lengthAdjust="spacing" textLength="130.3203" x="1900.957" y="473.2936">JSONRPCResponse</text><line style="stroke:#181818;stroke-width:0.5;" x1="1871.64" x2="2034.3548" y1="484.4469" y2="484.4469"/><text fill="#000000" font-family="sans-serif" font-size="14" lengthAdjust="spacing" textLength="116.2588" x="1876.64" y="501.442">JSONRPC : string</text><text fill="#000000" font-family="sans-serif" font-size="14" lengthAdjust="spacing" textLength="152.7148" x="1876.64" y="517.7389">ID : json.RawMessage</text><text fill="#000000" font-family="sans-serif" font-size="14" lengthAdjust="spacing" textLength="83.2412" x="1876.64" y="534.0357">Result : any</text><text fill="#000000" font-family="sans-serif" font-size="14" lengthAdjust="spacing" textLength="152.4277" x="1876.64" y="550.3326">Error : *JSONRPCError</text><line style="stroke:#181818;stroke-width:0.5;" x1="1871.64" x2="2034.3548" y1="557.6344" y2="557.6344"/></g><!--class Tool--><g class="entity" data-qualified-name="Protocol .internal.mcp.protocol..Tool" data-source-line="42" id="ent0008"><rect fill="#F1F1F1" height="96.8906" rx="2.5" ry="2.5" style="stroke:#181818;stroke-width:0.5;" width="210.6934" x="2070.65" y="460.5969"/><ellipse cx="2156.9605" cy="476.5969" fill="#ADD1B2" rx="11" ry="11" style="stroke:#181818;stroke-width:1;"/><path d="M2159.9293,482.2375 Q2159.3512,482.5344 2158.7105,482.675 Q2158.0699,482.8313 2157.3668,482.8313 Q2154.8668,482.8313 2153.5387,481.1906 Q2152.2262,479.5344 2152.2262,476.4094 Q2152.2262,473.2844 2153.5387,471.6281 Q2154.8668,469.9719 2157.3668,469.9719 Q2158.0699,469.9719 2158.7105,470.1281 Q2159.3668,470.2844 2159.9293,470.5813 L2159.9293,473.3 Q2159.3043,472.7219 2158.7105,472.4563 Q2158.1168,472.175 2157.4918,472.175 Q2156.148,472.175 2155.4605,473.2531 Q2154.773,474.3156 2154.773,476.4094 Q2154.773,478.5031 2155.4605,479.5813 Q2156.148,480.6438 2157.4918,480.6438 Q2158.1168,480.6438 2158.7105,480.3781 Q2159.3043,480.0969 2159.9293,479.5188 L2159.9293,482.2375 Z " fill="#000000"/><text fill="#000000" font-family="sans-serif" font-size="14" lengthAdjust="spacing" textLength="29.5723" x="2177.4605" y="481.4436">Tool</text><line style="stroke:#181818;stroke-width:0.5;" x1="2071.65" x2="2280.3434" y1="492.5969" y2="492.5969"/><text fill="#000000" font-family="sans-serif" font-size="14" lengthAdjust="spacing" textLength="95.1084" x="2076.65" y="509.592">Name : string</text><text fill="#000000" font-family="sans-serif" font-size="14" lengthAdjust="spacing" textLength="133.54" x="2076.65" y="525.8889">Description : string</text><text fill="#000000" font-family="sans-serif" font-size="14" lengthAdjust="spacing" textLength="198.6934" x="2076.65" y="542.1857">InputSchema : InputSchema</text><line style="stroke:#181818;stroke-width:0.5;" x1="2071.65" x2="2280.3434" y1="549.4875" y2="549.4875"/></g><!--class Resource--><g class="entity" data-qualified-name="Protocol .internal.mcp.protocol..Resource" data-source-line="48" id="ent0009"><rect fill="#F1F1F1" height="113.1875" rx="2.5" ry="2.5" style="stroke:#181818;stroke-width:0.5;" width="145.54" x="2316.23" y="452.4469"/><ellipse cx="2353.0102" cy="468.4469" fill="#ADD1B2" rx="11" ry="11" style="stroke:#181818;stroke-width:1;"/><path d="M2355.9789,474.0875 Q2355.4008,474.3844 2354.7602,474.525 Q2354.1196,474.6813 2353.4164,474.6813 Q2350.9164,474.6813 2349.5883,473.0406 Q2348.2758,471.3844 2348.2758,468.2594 Q2348.2758,465.1344 2349.5883,463.4781 Q2350.9164,461.8219 2353.4164,461.8219 Q2354.1196,461.8219 2354.7602,461.9781 Q2355.4164,462.1344 2355.9789,462.4313 L2355.9789,465.15 Q2355.3539,464.5719 2354.7602,464.3063 Q2354.1664,464.025 2353.5414,464.025 Q2352.1977,464.025 2351.5102,465.1031 Q2350.8227,466.1656 2350.8227,468.2594 Q2350.8227,470.3531 2351.5102,471.4313 Q2352.1977,472.4938 2353.5414,472.4938 Q2354.1664,472.4938 2354.7602,472.2281 Q2355.3539,471.9469 2355.9789,471.3688 L2355.9789,474.0875 Z " fill="#000000"/><text fill="#000000" font-family="sans-serif" font-size="14" lengthAdjust="spacing" textLength="65.1396" x="2371.8502" y="473.2936">Resource</text><line style="stroke:#181818;stroke-width:0.5;" x1="2317.23" x2="2460.77" y1="484.4469" y2="484.4469"/><text fill="#000000" font-family="sans-serif" font-size="14" lengthAdjust="spacing" textLength="77.9092" x="2322.23" y="501.442">URI : string</text><text fill="#000000" font-family="sans-serif" font-size="14" lengthAdjust="spacing" textLength="95.1084" x="2322.23" y="517.7389">Name : string</text><text fill="#000000" font-family="sans-serif" font-size="14" lengthAdjust="spacing" textLength="133.54" x="2322.23" y="534.0357">Description : string</text><text fill="#000000" font-family="sans-serif" font-size="14" lengthAdjust="spacing" textLength="126.3623" x="2322.23" y="550.3326">MimeType : string</text><line style="stroke:#181818;stroke-width:0.5;" x1="2317.23" x2="2460.77" y1="557.6344" y2="557.6344"/></g><!--class liza_get--><g class="entity" data-qualified-name="Tool Categories.Read-Only.liza_get" data-source-line="58" id="ent0012"><rect fill="#F1F1F1" height="56.2656" rx="2.5" ry="2.5" style="stroke:#181818;stroke-width:0.5;" width="88.5156" x="348.74" y="692.6369"/><ellipse cx="363.74" cy="712.7697" fill="#ADD1B2" rx="11" ry="11" style="stroke:#181818;stroke-width:1;"/><path d="M366.7088,718.4103 Q366.1306,718.7072 365.49,718.8478 Q364.8494,719.0041 364.1463,719.0041 Q361.6463,719.0041 360.3181,717.3634 Q359.0056,715.7072 359.0056,712.5822 Q359.0056,709.4572 360.3181,707.8009 Q361.6463,706.1447 364.1463,706.1447 Q364.8494,706.1447 365.49,706.3009 Q366.1463,706.4572 366.7088,706.7541 L366.7088,709.4728 Q366.0838,708.8947 365.49,708.6291 Q364.8963,708.3478 364.2713,708.3478 Q362.9275,708.3478 362.24,709.4259 Q361.5525,710.4884 361.5525,712.5822 Q361.5525,714.6759 362.24,715.7541 Q362.9275,716.8166 364.2713,716.8166 Q364.8963,716.8166 365.49,716.5509 Q366.0838,716.2697 366.7088,715.6916 L366.7088,718.4103 Z " fill="#000000"/><text fill="#000000" font-family="sans-serif" font-size="12" font-style="italic" lengthAdjust="spacing" textLength="60.5156" x="375.74" y="708.7755">&#171;handler&#187;</text><text fill="#000000" font-family="sans-serif" font-size="14" lengthAdjust="spacing" textLength="53.6963" x="379.1497" y="724.6007">liza_get</text><line style="stroke:#181818;stroke-width:0.5;" x1="349.74" x2="436.2556" y1="732.9025" y2="732.9025"/><line style="stroke:#181818;stroke-width:0.5;" x1="349.74" x2="436.2556" y1="740.9025" y2="740.9025"/></g><!--class liza_status--><g class="entity" data-qualified-name="Tool Categories.Read-Only.liza_status" data-source-line="59" id="ent0013"><rect fill="#F1F1F1" height="56.2656" rx="2.5" ry="2.5" style="stroke:#181818;stroke-width:0.5;" width="105.7256" x="472.14" y="692.6369"/><ellipse cx="487.14" cy="712.7697" fill="#ADD1B2" rx="11" ry="11" style="stroke:#181818;stroke-width:1;"/><path d="M490.1088,718.4103 Q489.5306,718.7072 488.89,718.8478 Q488.2494,719.0041 487.5463,719.0041 Q485.0463,719.0041 483.7181,717.3634 Q482.4056,715.7072 482.4056,712.5822 Q482.4056,709.4572 483.7181,707.8009 Q485.0463,706.1447 487.5463,706.1447 Q488.2494,706.1447 488.89,706.3009 Q489.5463,706.4572 490.1088,706.7541 L490.1088,709.4728 Q489.4838,708.8947 488.89,708.6291 Q488.2963,708.3478 487.6713,708.3478 Q486.3275,708.3478 485.64,709.4259 Q484.9525,710.4884 484.9525,712.5822 Q484.9525,714.6759 485.64,715.7541 Q486.3275,716.8166 487.6713,716.8166 Q488.2963,716.8166 488.89,716.5509 Q489.4838,716.2697 490.1088,715.6916 L490.1088,718.4103 Z " fill="#000000"/><text fill="#000000" font-family="sans-serif" font-size="12" font-style="italic" lengthAdjust="spacing" textLength="60.5156" x="507.745" y="708.7755">&#171;handler&#187;</text><text fill="#000000" font-family="sans-serif" font-size="14" lengthAdjust="spacing" textLength="73.7256" x="501.14" y="724.6007">liza_status</text><line style="stroke:#181818;stroke-width:0.5;" x1="473.14" x2="576.8656" y1="732.9025" y2="732.9025"/><line style="stroke:#181818;stroke-width:0.5;" x1="473.14" x2="576.8656" y1="740.9025" y2="740.9025"/></g><!--class liza_validate--><g class="entity" data-qualified-name="Tool Categories.Read-Only.liza_validate" data-source-line="60" id="ent0014"><rect fill="#F1F1F1" height="56.2656" rx="2.5" ry="2.5" style="stroke:#181818;stroke-width:0.5;" width="118.9189" x="194.54" y="692.6369"/><ellipse cx="209.54" cy="712.7697" fill="#ADD1B2" rx="11" ry="11" style="stroke:#181818;stroke-width:1;"/><path d="M212.5088,718.4103 Q211.9306,718.7072 211.29,718.8478 Q210.6494,719.0041 209.9463,719.0041 Q207.4463,719.0041 206.1181,717.3634 Q204.8056,715.7072 204.8056,712.5822 Q204.8056,709.4572 206.1181,707.8009 Q207.4463,706.1447 209.9463,706.1447 Q210.6494,706.1447 211.29,706.3009 Q211.9463,706.4572 212.5088,706.7541 L212.5088,709.4728 Q211.8838,708.8947 211.29,708.6291 Q210.6963,708.3478 210.0713,708.3478 Q208.7275,708.3478 208.04,709.4259 Q207.3525,710.4884 207.3525,712.5822 Q207.3525,714.6759 208.04,715.7541 Q208.7275,716.8166 210.0713,716.8166 Q210.6963,716.8166 211.29,716.5509 Q211.8838,716.2697 212.5088,715.6916 L212.5088,718.4103 Z " fill="#000000"/><text fill="#000000" font-family="sans-serif" font-size="12" font-style="italic" lengthAdjust="spacing" textLength="60.5156" x="236.7417" y="708.7755">&#171;handler&#187;</text><text fill="#000000" font-family="sans-serif" font-size="14" lengthAdjust="spacing" textLength="86.9189" x="223.54" y="724.6007">liza_validate</text><line style="stroke:#181818;stroke-width:0.5;" x1="195.54" x2="312.4589" y1="732.9025" y2="732.9025"/><line style="stroke:#181818;stroke-width:0.5;" x1="195.54" x2="312.4589" y1="740.9025" y2="740.9025"/></g><!--class liza_version--><g class="entity" data-qualified-name="Tool Categories.Read-Only.liza_version" data-source-line="61" id="ent0015"><rect fill="#F1F1F1" height="56.2656" rx="2.5" ry="2.5" style="stroke:#181818;stroke-width:0.5;" width="113.9834" x="46.01" y="692.6369"/><ellipse cx="61.01" cy="712.7697" fill="#ADD1B2" rx="11" ry="11" style="stroke:#181818;stroke-width:1;"/><path d="M63.9788,718.4103 Q63.4006,718.7072 62.76,718.8478 Q62.1194,719.0041 61.4163,719.0041 Q58.9163,719.0041 57.5881,717.3634 Q56.2756,715.7072 56.2756,712.5822 Q56.2756,709.4572 57.5881,707.8009 Q58.9163,706.1447 61.4163,706.1447 Q62.1194,706.1447 62.76,706.3009 Q63.4163,706.4572 63.9788,706.7541 L63.9788,709.4728 Q63.3538,708.8947 62.76,708.6291 Q62.1663,708.3478 61.5413,708.3478 Q60.1975,708.3478 59.51,709.4259 Q58.8225,710.4884 58.8225,712.5822 Q58.8225,714.6759 59.51,715.7541 Q60.1975,716.8166 61.5413,716.8166 Q62.1663,716.8166 62.76,716.5509 Q63.3538,716.2697 63.9788,715.6916 L63.9788,718.4103 Z " fill="#000000"/><text fill="#000000" font-family="sans-serif" font-size="12" font-style="italic" lengthAdjust="spacing" textLength="60.5156" x="85.7439" y="708.7755">&#171;handler&#187;</text><text fill="#000000" font-family="sans-serif" font-size="14" lengthAdjust="spacing" textLength="81.9834" x="75.01" y="724.6007">liza_version</text><line style="stroke:#181818;stroke-width:0.5;" x1="47.01" x2="158.9934" y1="732.9025" y2="732.9025"/><line style="stroke:#181818;stroke-width:0.5;" x1="47.01" x2="158.9934" y1="740.9025" y2="740.9025"/></g><!--class liza_claim_task--><g class="entity" data-qualified-name="Tool Categories.Mutations.liza_claim_task" data-source-line="65" id="ent0017"><rect fill="#F1F1F1" height="56.2656" rx="2.5" ry="2.5" style="stroke:#181818;stroke-width:0.5;" width="136.8701" x="633.56" y="692.6369"/><ellipse cx="648.56" cy="712.7697" fill="#ADD1B2" rx="11" ry="11" style="stroke:#181818;stroke-width:1;"/><path d="M651.5288,718.4103 Q650.9506,718.7072 650.31,718.8478 Q649.6694,719.0041 648.9663,719.0041 Q646.4663,719.0041 645.1381,717.3634 Q643.8256,715.7072 643.8256,712.5822 Q643.8256,709.4572 645.1381,707.8009 Q646.4663,706.1447 648.9663,706.1447 Q649.6694,706.1447 650.31,706.3009 Q650.9663,706.4572 651.5288,706.7541 L651.5288,709.4728 Q650.9038,708.8947 650.31,708.6291 Q649.7163,708.3478 649.0913,708.3478 Q647.7475,708.3478 647.06,709.4259 Q646.3725,710.4884 646.3725,712.5822 Q646.3725,714.6759 647.06,715.7541 Q647.7475,716.8166 649.0913,716.8166 Q649.7163,716.8166 650.31,716.5509 Q650.9038,716.2697 651.5288,715.6916 L651.5288,718.4103 Z " fill="#000000"/><text fill="#000000" font-family="sans-serif" font-size="12" font-style="italic" lengthAdjust="spacing" textLength="60.5156" x="684.7372" y="708.7755">&#171;handler&#187;</text><text fill="#000000" font-family="sans-serif" font-size="14" lengthAdjust="spacing" textLength="104.8701" x="662.56" y="724.6007">liza_claim_task</text><line style="stroke:#181818;stroke-width:0.5;" x1="634.56" x2="769.4301" y1="732.9025" y2="732.9025"/><line style="stroke:#181818;stroke-width:0.5;" x1="634.56" x2="769.4301" y1="740.9025" y2="740.9025"/></g><!--class liza_submit_for_review--><g class="entity" data-qualified-name="Tool Categories.Mutations.liza_submit_for_review" data-source-line="66" id="ent0018"><rect fill="#F1F1F1" height="56.2656" rx="2.5" ry="2.5" style="stroke:#181818;stroke-width:0.5;" width="190.6348" x="805.68" y="692.6369"/><ellipse cx="820.68" cy="712.7697" fill="#ADD1B2" rx="11" ry="11" style="stroke:#181818;stroke-width:1;"/><path d="M823.6488,718.4103 Q823.0706,718.7072 822.43,718.8478 Q821.7894,719.0041 821.0863,719.0041 Q818.5863,719.0041 817.2581,717.3634 Q815.9456,715.7072 815.9456,712.5822 Q815.9456,709.4572 817.2581,707.8009 Q818.5863,706.1447 821.0863,706.1447 Q821.7894,706.1447 822.43,706.3009 Q823.0863,706.4572 823.6488,706.7541 L823.6488,709.4728 Q823.0238,708.8947 822.43,708.6291 Q821.8363,708.3478 821.2113,708.3478 Q819.8675,708.3478 819.18,709.4259 Q818.4925,710.4884 818.4925,712.5822 Q818.4925,714.6759 819.18,715.7541 Q819.8675,716.8166 821.2113,716.8166 Q821.8363,716.8166 822.43,716.5509 Q823.0238,716.2697 823.6488,715.6916 L823.6488,718.4103 Z " fill="#000000"/><text fill="#000000" font-family="sans-serif" font-size="12" font-style="italic" lengthAdjust="spacing" textLength="60.5156" x="883.7396" y="708.7755">&#171;handler&#187;</text><text fill="#000000" font-family="sans-serif" font-size="14" lengthAdjust="spacing" textLength="158.6348" x="834.68" y="724.6007">liza_submit_for_review</text><line style="stroke:#181818;stroke-width:0.5;" x1="806.68" x2="995.3148" y1="732.9025" y2="732.9025"/><line style="stroke:#181818;stroke-width:0.5;" x1="806.68" x2="995.3148" y1="740.9025" y2="740.9025"/></g><!--class liza_submit_verdict--><g class="entity" data-qualified-name="Tool Categories.Mutations.liza_submit_verdict" data-source-line="67" id="ent0019"><rect fill="#F1F1F1" height="56.2656" rx="2.5" ry="2.5" style="stroke:#181818;stroke-width:0.5;" width="166.3945" x="1031.8" y="692.6369"/><ellipse cx="1046.8" cy="712.7697" fill="#ADD1B2" rx="11" ry="11" style="stroke:#181818;stroke-width:1;"/><path d="M1049.7688,718.4103 Q1049.1906,718.7072 1048.55,718.8478 Q1047.9094,719.0041 1047.2063,719.0041 Q1044.7063,719.0041 1043.3781,717.3634 Q1042.0656,715.7072 1042.0656,712.5822 Q1042.0656,709.4572 1043.3781,707.8009 Q1044.7063,706.1447 1047.2063,706.1447 Q1047.9094,706.1447 1048.55,706.3009 Q1049.2063,706.4572 1049.7688,706.7541 L1049.7688,709.4728 Q1049.1438,708.8947 1048.55,708.6291 Q1047.9563,708.3478 1047.3313,708.3478 Q1045.9875,708.3478 1045.3,709.4259 Q1044.6125,710.4884 1044.6125,712.5822 Q1044.6125,714.6759 1045.3,715.7541 Q1045.9875,716.8166 1047.3313,716.8166 Q1047.9563,716.8166 1048.55,716.5509 Q1049.1438,716.2697 1049.7688,715.6916 L1049.7688,718.4103 Z " fill="#000000"/><text fill="#000000" font-family="sans-serif" font-size="12" font-style="italic" lengthAdjust="spacing" textLength="60.5156" x="1097.7395" y="708.7755">&#171;handler&#187;</text><text fill="#000000" font-family="sans-serif" font-size="14" lengthAdjust="spacing" textLength="134.3945" x="1060.8" y="724.6007">liza_submit_verdict</text><line style="stroke:#181818;stroke-width:0.5;" x1="1032.8" x2="1197.1945" y1="732.9025" y2="732.9025"/><line style="stroke:#181818;stroke-width:0.5;" x1="1032.8" x2="1197.1945" y1="740.9025" y2="740.9025"/></g><!--class liza_add_tasks--><g class="entity" data-qualified-name="Tool Categories.Mutations.liza_add_tasks" data-source-line="68" id="ent0020"><rect fill="#F1F1F1" height="56.2656" rx="2.5" ry="2.5" style="stroke:#181818;stroke-width:0.5;" width="132.8232" x="1233.59" y="692.6369"/><ellipse cx="1248.59" cy="712.7697" fill="#ADD1B2" rx="11" ry="11" style="stroke:#181818;stroke-width:1;"/><path d="M1251.5588,718.4103 Q1250.9806,718.7072 1250.34,718.8478 Q1249.6994,719.0041 1248.9963,719.0041 Q1246.4963,719.0041 1245.1681,717.3634 Q1243.8556,715.7072 1243.8556,712.5822 Q1243.8556,709.4572 1245.1681,707.8009 Q1246.4963,706.1447 1248.9963,706.1447 Q1249.6994,706.1447 1250.34,706.3009 Q1250.9963,706.4572 1251.5588,706.7541 L1251.5588,709.4728 Q1250.9338,708.8947 1250.34,708.6291 Q1249.7463,708.3478 1249.1213,708.3478 Q1247.7775,708.3478 1247.09,709.4259 Q1246.4025,710.4884 1246.4025,712.5822 Q1246.4025,714.6759 1247.09,715.7541 Q1247.7775,716.8166 1249.1213,716.8166 Q1249.7463,716.8166 1250.34,716.5509 Q1250.9338,716.2697 1251.5588,715.6916 L1251.5588,718.4103 Z " fill="#000000"/><text fill="#000000" font-family="sans-serif" font-size="12" font-style="italic" lengthAdjust="spacing" textLength="60.5156" x="1282.7438" y="708.7755">&#171;handler&#187;</text><text fill="#000000" font-family="sans-serif" font-size="14" lengthAdjust="spacing" textLength="100.8232" x="1262.59" y="724.6007">liza_add_tasks</text><line style="stroke:#181818;stroke-width:0.5;" x1="1234.59" x2="1365.4132" y1="732.9025" y2="732.9025"/><line style="stroke:#181818;stroke-width:0.5;" x1="1234.59" x2="1365.4132" y1="740.9025" y2="740.9025"/></g><!--class liza_mark_blocked--><g class="entity" data-qualified-name="Tool Categories.Mutations.liza_mark_blocked" data-source-line="69" id="ent0021"><rect fill="#F1F1F1" height="56.2656" rx="2.5" ry="2.5" style="stroke:#181818;stroke-width:0.5;" width="160.4336" x="1401.78" y="692.6369"/><ellipse cx="1416.78" cy="712.7697" fill="#ADD1B2" rx="11" ry="11" style="stroke:#181818;stroke-width:1;"/><path d="M1419.7488,718.4103 Q1419.1706,718.7072 1418.53,718.8478 Q1417.8894,719.0041 1417.1863,719.0041 Q1414.6863,719.0041 1413.3581,717.3634 Q1412.0456,715.7072 1412.0456,712.5822 Q1412.0456,709.4572 1413.3581,707.8009 Q1414.6863,706.1447 1417.1863,706.1447 Q1417.8894,706.1447 1418.53,706.3009 Q1419.1863,706.4572 1419.7488,706.7541 L1419.7488,709.4728 Q1419.1238,708.8947 1418.53,708.6291 Q1417.9363,708.3478 1417.3113,708.3478 Q1415.9675,708.3478 1415.28,709.4259 Q1414.5925,710.4884 1414.5925,712.5822 Q1414.5925,714.6759 1415.28,715.7541 Q1415.9675,716.8166 1417.3113,716.8166 Q1417.9363,716.8166 1418.53,716.5509 Q1419.1238,716.2697 1419.7488,715.6916 L1419.7488,718.4103 Z " fill="#000000"/><text fill="#000000" font-family="sans-serif" font-size="12" font-style="italic" lengthAdjust="spacing" textLength="60.5156" x="1464.739" y="708.7755">&#171;handler&#187;</text><text fill="#000000" font-family="sans-serif" font-size="14" lengthAdjust="spacing" textLength="128.4336" x="1430.78" y="724.6007">liza_mark_blocked</text><line style="stroke:#181818;stroke-width:0.5;" x1="1402.78" x2="1561.2136" y1="732.9025" y2="732.9025"/><line style="stroke:#181818;stroke-width:0.5;" x1="1402.78" x2="1561.2136" y1="740.9025" y2="740.9025"/></g><!--class liza_handoff--><g class="entity" data-qualified-name="Tool Categories.Mutations.liza_handoff" data-source-line="70" id="ent0022"><rect fill="#F1F1F1" height="56.2656" rx="2.5" ry="2.5" style="stroke:#181818;stroke-width:0.5;" width="116.3418" x="1596.83" y="692.6369"/><ellipse cx="1611.83" cy="712.7697" fill="#ADD1B2" rx="11" ry="11" style="stroke:#181818;stroke-width:1;"/><path d="M1614.7988,718.4103 Q1614.2206,718.7072 1613.58,718.8478 Q1612.9394,719.0041 1612.2363,719.0041 Q1609.7363,719.0041 1608.4081,717.3634 Q1607.0956,715.7072 1607.0956,712.5822 Q1607.0956,709.4572 1608.4081,707.8009 Q1609.7363,706.1447 1612.2363,706.1447 Q1612.9394,706.1447 1613.58,706.3009 Q1614.2363,706.4572 1614.7988,706.7541 L1614.7988,709.4728 Q1614.1738,708.8947 1613.58,708.6291 Q1612.9863,708.3478 1612.3613,708.3478 Q1611.0175,708.3478 1610.33,709.4259 Q1609.6425,710.4884 1609.6425,712.5822 Q1609.6425,714.6759 1610.33,715.7541 Q1611.0175,716.8166 1612.3613,716.8166 Q1612.9863,716.8166 1613.58,716.5509 Q1614.1738,716.2697 1614.7988,715.6916 L1614.7988,718.4103 Z " fill="#000000"/><text fill="#000000" font-family="sans-serif" font-size="12" font-style="italic" lengthAdjust="spacing" textLength="60.5156" x="1637.7431" y="708.7755">&#171;handler&#187;</text><text fill="#000000" font-family="sans-serif" font-size="14" lengthAdjust="spacing" textLength="84.3418" x="1625.83" y="724.6007">liza_handoff</text><line style="stroke:#181818;stroke-width:0.5;" x1="1597.83" x2="1712.1718" y1="732.9025" y2="732.9025"/><line style="stroke:#181818;stroke-width:0.5;" x1="1597.83" x2="1712.1718" y1="740.9025" y2="740.9025"/></g><!--class liza_supersede_task--><g class="entity" data-qualified-name="Tool Categories.Mutations.liza_supersede_task" data-source-line="71" id="ent0023"><rect fill="#F1F1F1" height="56.2656" rx="2.5" ry="2.5" style="stroke:#181818;stroke-width:0.5;" width="172.0068" x="1396" y="811.8969"/><ellipse cx="1411" cy="832.0297" fill="#ADD1B2" rx="11" ry="11" style="stroke:#181818;stroke-width:1;"/><path d="M1413.9688,837.6703 Q1413.3906,837.9672 1412.75,838.1078 Q1412.1094,838.2641 1411.4063,838.2641 Q1408.9063,838.2641 1407.5781,836.6234 Q1406.2656,834.9672 1406.2656,831.8422 Q1406.2656,828.7172 1407.5781,827.0609 Q1408.9063,825.4047 1411.4063,825.4047 Q1412.1094,825.4047 1412.75,825.5609 Q1413.4063,825.7172 1413.9688,826.0141 L1413.9688,828.7328 Q1413.3438,828.1547 1412.75,827.8891 Q1412.1563,827.6078 1411.5313,827.6078 Q1410.1875,827.6078 1409.5,828.6859 Q1408.8125,829.7484 1408.8125,831.8422 Q1408.8125,833.9359 1409.5,835.0141 Q1410.1875,836.0766 1411.5313,836.0766 Q1412.1563,836.0766 1412.75,835.8109 Q1413.3438,835.5297 1413.9688,834.9516 L1413.9688,837.6703 Z " fill="#000000"/><text fill="#000000" font-family="sans-serif" font-size="12" font-style="italic" lengthAdjust="spacing" textLength="60.5156" x="1464.7456" y="828.0355">&#171;handler&#187;</text><text fill="#000000" font-family="sans-serif" font-size="14" lengthAdjust="spacing" textLength="140.0068" x="1425" y="843.8607">liza_supersede_task</text><line style="stroke:#181818;stroke-width:0.5;" x1="1397" x2="1567.0068" y1="852.1625" y2="852.1625"/><line style="stroke:#181818;stroke-width:0.5;" x1="1397" x2="1567.0068" y1="860.1625" y2="860.1625"/></g><!--class liza_wt_create--><g class="entity" data-qualified-name="Tool Categories.Worktree Ops.liza_wt_create" data-source-line="75" id="ent0025"><rect fill="#F1F1F1" height="56.2656" rx="2.5" ry="2.5" style="stroke:#181818;stroke-width:0.5;" width="131.3945" x="1934.3" y="692.6369"/><ellipse cx="1949.3" cy="712.7697" fill="#ADD1B2" rx="11" ry="11" style="stroke:#181818;stroke-width:1;"/><path d="M1952.2688,718.4103 Q1951.6906,718.7072 1951.05,718.8478 Q1950.4094,719.0041 1949.7063,719.0041 Q1947.2063,719.0041 1945.8781,717.3634 Q1944.5656,715.7072 1944.5656,712.5822 Q1944.5656,709.4572 1945.8781,707.8009 Q1947.2063,706.1447 1949.7063,706.1447 Q1950.4094,706.1447 1951.05,706.3009 Q1951.7063,706.4572 1952.2688,706.7541 L1952.2688,709.4728 Q1951.6438,708.8947 1951.05,708.6291 Q1950.4563,708.3478 1949.8313,708.3478 Q1948.4875,708.3478 1947.8,709.4259 Q1947.1125,710.4884 1947.1125,712.5822 Q1947.1125,714.6759 1947.8,715.7541 Q1948.4875,716.8166 1949.8313,716.8166 Q1950.4563,716.8166 1951.05,716.5509 Q1951.6438,716.2697 1952.2688,715.6916 L1952.2688,718.4103 Z " fill="#000000"/><text fill="#000000" font-family="sans-serif" font-size="12" font-style="italic" lengthAdjust="spacing" textLength="60.5156" x="1982.7395" y="708.7755">&#171;handler&#187;</text><text fill="#000000" font-family="sans-serif" font-size="14" lengthAdjust="spacing" textLength="99.3945" x="1963.3" y="724.6007">liza_wt_create</text><line style="stroke:#181818;stroke-width:0.5;" x1="1935.3" x2="2064.6945" y1="732.9025" y2="732.9025"/><line style="stroke:#181818;stroke-width:0.5;" x1="1935.3" x2="2064.6945" y1="740.9025" y2="740.9025"/></g><!--class liza_wt_merge--><g class="entity" data-qualified-name="Tool Categories.Worktree Ops.liza_wt_merge" data-source-line="76" id="ent0026"><rect fill="#F1F1F1" height="56.2656" rx="2.5" ry="2.5" style="stroke:#181818;stroke-width:0.5;" width="132.1533" x="2100.92" y="692.6369"/><ellipse cx="2115.92" cy="712.7697" fill="#ADD1B2" rx="11" ry="11" style="stroke:#181818;stroke-width:1;"/><path d="M2118.8888,718.4103 Q2118.3106,718.7072 2117.67,718.8478 Q2117.0294,719.0041 2116.3263,719.0041 Q2113.8263,719.0041 2112.4981,717.3634 Q2111.1856,715.7072 2111.1856,712.5822 Q2111.1856,709.4572 2112.4981,707.8009 Q2113.8263,706.1447 2116.3263,706.1447 Q2117.0294,706.1447 2117.67,706.3009 Q2118.3263,706.4572 2118.8888,706.7541 L2118.8888,709.4728 Q2118.2638,708.8947 2117.67,708.6291 Q2117.0763,708.3478 2116.4513,708.3478 Q2115.1075,708.3478 2114.42,709.4259 Q2113.7325,710.4884 2113.7325,712.5822 Q2113.7325,714.6759 2114.42,715.7541 Q2115.1075,716.8166 2116.4513,716.8166 Q2117.0763,716.8166 2117.67,716.5509 Q2118.2638,716.2697 2118.8888,715.6916 L2118.8888,718.4103 Z " fill="#000000"/><text fill="#000000" font-family="sans-serif" font-size="12" font-style="italic" lengthAdjust="spacing" textLength="60.5156" x="2149.7388" y="708.7755">&#171;handler&#187;</text><text fill="#000000" font-family="sans-serif" font-size="14" lengthAdjust="spacing" textLength="100.1533" x="2129.92" y="724.6007">liza_wt_merge</text><line style="stroke:#181818;stroke-width:0.5;" x1="2101.92" x2="2232.0733" y1="732.9025" y2="732.9025"/><line style="stroke:#181818;stroke-width:0.5;" x1="2101.92" x2="2232.0733" y1="740.9025" y2="740.9025"/></g><!--class liza_wt_delete--><g class="entity" data-qualified-name="Tool Categories.Worktree Ops.liza_wt_delete" data-source-line="77" id="ent0027"><rect fill="#F1F1F1" height="56.2656" rx="2.5" ry="2.5" style="stroke:#181818;stroke-width:0.5;" width="130.752" x="1768.62" y="692.6369"/><ellipse cx="1783.62" cy="712.7697" fill="#ADD1B2" rx="11" ry="11" style="stroke:#181818;stroke-width:1;"/><path d="M1786.5888,718.4103 Q1786.0106,718.7072 1785.37,718.8478 Q1784.7294,719.0041 1784.0263,719.0041 Q1781.5263,719.0041 1780.1981,717.3634 Q1778.8856,715.7072 1778.8856,712.5822 Q1778.8856,709.4572 1780.1981,707.8009 Q1781.5263,706.1447 1784.0263,706.1447 Q1784.7294,706.1447 1785.37,706.3009 Q1786.0263,706.4572 1786.5888,706.7541 L1786.5888,709.4728 Q1785.9638,708.8947 1785.37,708.6291 Q1784.7763,708.3478 1784.1513,708.3478 Q1782.8075,708.3478 1782.12,709.4259 Q1781.4325,710.4884 1781.4325,712.5822 Q1781.4325,714.6759 1782.12,715.7541 Q1782.8075,716.8166 1784.1513,716.8166 Q1784.7763,716.8166 1785.37,716.5509 Q1785.9638,716.2697 1786.5888,715.6916 L1786.5888,718.4103 Z " fill="#000000"/><text fill="#000000" font-family="sans-serif" font-size="12" font-style="italic" lengthAdjust="spacing" textLength="60.5156" x="1816.7382" y="708.7755">&#171;handler&#187;</text><text fill="#000000" font-family="sans-serif" font-size="14" lengthAdjust="spacing" textLength="98.752" x="1797.62" y="724.6007">liza_wt_delete</text><line style="stroke:#181818;stroke-width:0.5;" x1="1769.62" x2="1898.372" y1="732.9025" y2="732.9025"/><line style="stroke:#181818;stroke-width:0.5;" x1="1769.62" x2="1898.372" y1="740.9025" y2="740.9025"/></g><!--class liza_delete_agent--><g class="entity" data-qualified-name="Tool Categories.Admin.liza_delete_agent" data-source-line="81" id="ent0029"><rect fill="#F1F1F1" height="56.2656" rx="2.5" ry="2.5" style="stroke:#181818;stroke-width:0.5;" width="154.2539" x="2662.87" y="692.6369"/><ellipse cx="2677.87" cy="712.7697" fill="#ADD1B2" rx="11" ry="11" style="stroke:#181818;stroke-width:1;"/><path d="M2680.8388,718.4103 Q2680.2606,718.7072 2679.62,718.8478 Q2678.9794,719.0041 2678.2763,719.0041 Q2675.7763,719.0041 2674.4481,717.3634 Q2673.1356,715.7072 2673.1356,712.5822 Q2673.1356,709.4572 2674.4481,707.8009 Q2675.7763,706.1447 2678.2763,706.1447 Q2678.9794,706.1447 2679.62,706.3009 Q2680.2763,706.4572 2680.8388,706.7541 L2680.8388,709.4728 Q2680.2138,708.8947 2679.62,708.6291 Q2679.0263,708.3478 2678.4013,708.3478 Q2677.0575,708.3478 2676.37,709.4259 Q2675.6825,710.4884 2675.6825,712.5822 Q2675.6825,714.6759 2676.37,715.7541 Q2677.0575,716.8166 2678.4013,716.8166 Q2679.0263,716.8166 2679.62,716.5509 Q2680.2138,716.2697 2680.8388,715.6916 L2680.8388,718.4103 Z " fill="#000000"/><text fill="#000000" font-family="sans-serif" font-size="12" font-style="italic" lengthAdjust="spacing" textLength="60.5156" x="2722.7391" y="708.7755">&#171;handler&#187;</text><text fill="#000000" font-family="sans-serif" font-size="14" lengthAdjust="spacing" textLength="122.2539" x="2691.87" y="724.6007">liza_delete_agent</text><line style="stroke:#181818;stroke-width:0.5;" x1="2663.87" x2="2816.1239" y1="732.9025" y2="732.9025"/><line style="stroke:#181818;stroke-width:0.5;" x1="2663.87" x2="2816.1239" y1="740.9025" y2="740.9025"/></g><!--class liza_analyze--><g class="entity" data-qualified-name="Tool Categories.Admin.liza_analyze" data-source-line="82" id="ent0030"><rect fill="#F1F1F1" height="56.2656" rx="2.5" ry="2.5" style="stroke:#181818;stroke-width:0.5;" width="116.875" x="2510.56" y="692.6369"/><ellipse cx="2525.56" cy="712.7697" fill="#ADD1B2" rx="11" ry="11" style="stroke:#181818;stroke-width:1;"/><path d="M2528.5288,718.4103 Q2527.9506,718.7072 2527.31,718.8478 Q2526.6694,719.0041 2525.9663,719.0041 Q2523.4663,719.0041 2522.1381,717.3634 Q2520.8256,715.7072 2520.8256,712.5822 Q2520.8256,709.4572 2522.1381,707.8009 Q2523.4663,706.1447 2525.9663,706.1447 Q2526.6694,706.1447 2527.31,706.3009 Q2527.9663,706.4572 2528.5288,706.7541 L2528.5288,709.4728 Q2527.9038,708.8947 2527.31,708.6291 Q2526.7163,708.3478 2526.0913,708.3478 Q2524.7475,708.3478 2524.06,709.4259 Q2523.3725,710.4884 2523.3725,712.5822 Q2523.3725,714.6759 2524.06,715.7541 Q2524.7475,716.8166 2526.0913,716.8166 Q2526.7163,716.8166 2527.31,716.5509 Q2527.9038,716.2697 2528.5288,715.6916 L2528.5288,718.4103 Z " fill="#000000"/><text fill="#000000" font-family="sans-serif" font-size="12" font-style="italic" lengthAdjust="spacing" textLength="60.5156" x="2551.7397" y="708.7755">&#171;handler&#187;</text><text fill="#000000" font-family="sans-serif" font-size="14" lengthAdjust="spacing" textLength="84.875" x="2539.56" y="724.6007">liza_analyze</text><line style="stroke:#181818;stroke-width:0.5;" x1="2511.56" x2="2626.435" y1="732.9025" y2="732.9025"/><line style="stroke:#181818;stroke-width:0.5;" x1="2511.56" x2="2626.435" y1="740.9025" y2="740.9025"/></g><!--class liza_sprint_checkpoint--><g class="entity" data-qualified-name="Tool Categories.Admin.liza_sprint_checkpoint" data-source-line="83" id="ent0031"><rect fill="#F1F1F1" height="56.2656" rx="2.5" ry="2.5" style="stroke:#181818;stroke-width:0.5;" width="186.5879" x="2288.71" y="692.6369"/><ellipse cx="2303.71" cy="712.7697" fill="#ADD1B2" rx="11" ry="11" style="stroke:#181818;stroke-width:1;"/><path d="M2306.6788,718.4103 Q2306.1006,718.7072 2305.46,718.8478 Q2304.8194,719.0041 2304.1163,719.0041 Q2301.6163,719.0041 2300.2881,717.3634 Q2298.9756,715.7072 2298.9756,712.5822 Q2298.9756,709.4572 2300.2881,707.8009 Q2301.6163,706.1447 2304.1163,706.1447 Q2304.8194,706.1447 2305.46,706.3009 Q2306.1163,706.4572 2306.6788,706.7541 L2306.6788,709.4728 Q2306.0538,708.8947 2305.46,708.6291 Q2304.8663,708.3478 2304.2413,708.3478 Q2302.8975,708.3478 2302.21,709.4259 Q2301.5225,710.4884 2301.5225,712.5822 Q2301.5225,714.6759 2302.21,715.7541 Q2302.8975,716.8166 2304.2413,716.8166 Q2304.8663,716.8166 2305.46,716.5509 Q2306.0538,716.2697 2306.6788,715.6916 L2306.6788,718.4103 Z " fill="#000000"/><text fill="#000000" font-family="sans-serif" font-size="12" font-style="italic" lengthAdjust="spacing" textLength="60.5156" x="2364.7461" y="708.7755">&#171;handler&#187;</text><text fill="#000000" font-family="sans-serif" font-size="14" lengthAdjust="spacing" textLength="154.5879" x="2317.71" y="724.6007">liza_sprint_checkpoint</text><line style="stroke:#181818;stroke-width:0.5;" x1="2289.71" x2="2474.2979" y1="732.9025" y2="732.9025"/><line style="stroke:#181818;stroke-width:0.5;" x1="2289.71" x2="2474.2979" y1="740.9025" y2="740.9025"/></g><g class="entity" data-qualified-name="GMN46" data-source-line="104" id="ent0047"><path d="M1372.49,481.3469 L1372.49,536.7453 A0,0 0 0 0 1372.49,536.7453 L1635.5198,536.7453 A0,0 0 0 0 1635.5198,536.7453 L1635.5198,491.3469 L1625.5198,481.3469 L1471.85,481.3469 L1298.96,354.8369 L1463.85,481.3469 L1372.49,481.3469 A0,0 0 0 0 1372.49,481.3469" fill="#FEFFDD" style="stroke:#181818;stroke-width:0.5;"/><path d="M1625.5198,481.3469 L1625.5198,491.3469 L1635.5198,491.3469 L1625.5198,481.3469" fill="#FEFFDD" style="stroke:#181818;stroke-width:0.5;"/><text fill="#000000" font-family="sans-serif" font-size="13" lengthAdjust="spacing" textLength="199.1323" x="1378.49" y="498.4138">Stdio transport (JSON-RPC 2.0)</text><text fill="#000000" font-family="sans-serif" font-size="13" lengthAdjust="spacing" textLength="242.0298" x="1378.49" y="513.5466">Spawned by LLM CLI as child process</text><text fill="#000000" font-family="sans-serif" font-size="13" lengthAdjust="spacing" textLength="191.4199" x="1378.49" y="528.6794">One server per agent session</text></g><!--link Server to TH--><g class="link" data-entity-1="ent0003" data-entity-2="ent0004" data-link-type="dependency" data-source-line="87" id="lnk32"><path codeLine="87" d="M1115,354.6169 C1115,400.1869 1115,440.8169 1115,470.5169" fill="none" id="Server-to-TH" style="stroke:#181818;stroke-width:1;"/><polygon fill="#181818" points="1115,476.5169,1119,467.5169,1115,471.5169,1111,467.5169,1115,476.5169" style="stroke:#181818;stroke-width:1;"/><text fill="#000000" font-family="sans-serif" font-size="13" lengthAdjust="spacing" textLength="87.293" x="1116" y="397.5138">dispatches to</text></g><!--link Server to Tool--><g class="link" data-entity-1="ent0003" data-entity-2="ent0008" data-link-type="dependency" data-source-line="88" id="lnk33"><path codeLine="88" d="M1339.91,233.5069 C1536.01,254.4269 1824.09,302.0069 2053,409.4469 C2079.88,422.0669 2101.5374,437.7655 2122.7974,456.2055" fill="none" id="Server-to-Tool" style="stroke:#181818;stroke-width:1;"/><polygon fill="#181818" points="2127.33,460.1369,2123.152,451.2181,2123.5528,456.8607,2117.9102,457.2615,2127.33,460.1369" style="stroke:#181818;stroke-width:1;"/><text fill="#000000" font-family="sans-serif" font-size="13" lengthAdjust="spacing" textLength="57.1924" x="2030" y="397.5138">registers</text></g><!--link Server to Resource--><g class="link" data-entity-1="ent0003" data-entity-2="ent0009" data-link-type="dependency" data-source-line="89" id="lnk34"><path codeLine="89" d="M1340.18,236.1669 C1636.15,263.8769 2137.42,322.0369 2299,409.4469 C2318.16,419.8169 2331.4421,431.3386 2345.5621,447.4986" fill="none" id="Server-to-Resource" style="stroke:#181818;stroke-width:1;"/><polygon fill="#181818" points="2349.51,452.0169,2346.6004,442.6076,2346.2201,448.2517,2340.5761,447.8714,2349.51,452.0169" style="stroke:#181818;stroke-width:1;"/><text fill="#000000" font-family="sans-serif" font-size="13" lengthAdjust="spacing" textLength="57.1924" x="2268" y="397.5138">registers</text></g><!--link Server to JSONRPCRequest--><g class="link" data-entity-1="ent0003" data-entity-2="ent0006" data-link-type="dependency" data-source-line="90" id="lnk35"><path codeLine="90" d="M1339.9,273.7169 C1440.34,304.7669 1557.35,349.3969 1653,409.4469 C1671.58,421.1169 1685.2201,432.5215 1700.5901,447.9115" fill="none" id="Server-to-JSONRPCRequest" style="stroke:#181818;stroke-width:1;"/><polygon fill="#181818" points="1704.83,452.1569,1701.3004,442.9622,1701.2968,448.619,1695.6399,448.6154,1704.83,452.1569" style="stroke:#181818;stroke-width:1;"/><text fill="#000000" font-family="sans-serif" font-size="13" lengthAdjust="spacing" textLength="54.5645" x="1640" y="397.5138">receives</text></g><!--link Server to JSONRPCResponse--><g class="link" data-entity-1="ent0003" data-entity-2="ent0007" data-link-type="dependency" data-source-line="91" id="lnk36"><path codeLine="91" d="M1340,244.7369 C1492.45,270.5469 1694.27,319.3069 1853,409.4469 C1872.5,420.5269 1886.6818,432.1099 1902.2618,447.8699" fill="none" id="Server-to-JSONRPCResponse" style="stroke:#181818;stroke-width:1;"/><polygon fill="#181818" points="1906.48,452.1369,1902.9973,442.9243,1902.9648,448.5811,1897.3081,448.5486,1906.48,452.1369" style="stroke:#181818;stroke-width:1;"/><text fill="#000000" font-family="sans-serif" font-size="13" lengthAdjust="spacing" textLength="47.0361" x="1836" y="397.5138">returns</text></g><!--reverse link TH to liza_get--><g class="link" data-entity-1="ent0004" data-entity-2="ent0012" data-link-type="extension" data-source-line="93" id="lnk37"><path codeLine="93" d="M940.8331,518.0984 C771.9531,528.3584 534.22,551.5769 455,606.6369 C425.67,627.0269 408.82,665.9269 400.28,692.3569" fill="none" id="TH-backto-liza_get" style="stroke:#181818;stroke-width:1;stroke-dasharray:7,7;"/><polygon fill="none" points="958.8,517.0069,940.4693,512.1095,941.197,524.0874,958.8,517.0069" style="stroke:#181818;stroke-width:1;"/></g><!--reverse link TH to liza_status--><g class="link" data-entity-1="ent0004" data-entity-2="ent0013" data-link-type="extension" data-source-line="94" id="lnk38"><path codeLine="94" d="M940.9258,531.1345 C817.4258,548.0145 674.59,572.9169 618,606.6369 C583.27,627.3269 555.81,665.9569 539.98,692.2669" fill="none" id="TH-backto-liza_status" style="stroke:#181818;stroke-width:1;stroke-dasharray:7,7;"/><polygon fill="none" points="958.76,528.6969,940.1133,525.1897,941.7383,537.0792,958.76,528.6969" style="stroke:#181818;stroke-width:1;"/></g><!--reverse link TH to liza_claim_task--><g class="link" data-entity-1="ent0004" data-entity-2="ent0017" data-link-type="extension" data-source-line="95" id="lnk39"><path codeLine="95" d="M941.3532,539.3755 C884.0732,553.7755 838.43,571.8369 788,606.6369 C755.92,628.7769 730.68,666.6769 716.05,692.4569" fill="none" id="TH-backto-liza_claim_task" style="stroke:#181818;stroke-width:1;stroke-dasharray:7,7;"/><polygon fill="none" points="958.81,534.9869,939.8903,533.5565,942.816,545.1944,958.81,534.9869" style="stroke:#181818;stroke-width:1;"/></g><!--reverse link TH to liza_submit_for_review--><g class="link" data-entity-1="ent0004" data-entity-2="ent0018" data-link-type="extension" data-source-line="96" id="lnk40"><path codeLine="96" d="M1068.5595,554.0038 C1048.7895,572.7838 1036.37,584.7469 1014,606.6369 C984.44,635.5669 951.01,669.1469 928.23,692.1569" fill="none" id="TH-backto-liza_submit_for_review" style="stroke:#181818;stroke-width:1;stroke-dasharray:7,7;"/><polygon fill="none" points="1081.61,541.6069,1064.4272,549.6537,1072.6918,558.354,1081.61,541.6069" style="stroke:#181818;stroke-width:1;"/></g><!--reverse link TH to liza_submit_verdict--><g class="link" data-entity-1="ent0004" data-entity-2="ent0019" data-link-type="extension" data-source-line="97" id="lnk41"><path codeLine="97" d="M1115,559.4369 C1115,600.3469 1115,653.2369 1115,692.1769" fill="none" id="TH-backto-liza_submit_verdict" style="stroke:#181818;stroke-width:1;stroke-dasharray:7,7;"/><polygon fill="none" points="1115,541.4369,1109,559.4369,1121,559.4369,1115,541.4369" style="stroke:#181818;stroke-width:1;"/></g><!--reverse link TH to liza_add_tasks--><g class="link" data-entity-1="ent0004" data-entity-2="ent0020" data-link-type="extension" data-source-line="98" id="lnk42"><path codeLine="98" d="M1163.8588,553.4371 C1183.8888,571.7071 1195.61,583.5369 1216,606.6369 C1240.45,634.3269 1265.28,668.7169 1281.54,692.2569" fill="none" id="TH-backto-liza_add_tasks" style="stroke:#181818;stroke-width:1;stroke-dasharray:7,7;"/><polygon fill="none" points="1150.56,541.3069,1159.8154,557.87,1167.9022,549.0042,1150.56,541.3069" style="stroke:#181818;stroke-width:1;"/></g><!--reverse link TH to liza_wt_create--><g class="link" data-entity-1="ent0004" data-entity-2="ent0025" data-link-type="extension" data-source-line="99" id="lnk43"><path codeLine="99" d="M1208.177,548.0685 C1254.617,565.7085 1298.81,579.6869 1355,589.6369 C1416.52,600.5269 1861.7,577.5669 1917,606.6369 C1951.82,624.9469 1975.74,665.1769 1988.66,692.3869" fill="none" id="TH-backto-liza_wt_create" style="stroke:#181818;stroke-width:1;stroke-dasharray:7,7;"/><polygon fill="none" points="1191.35,541.6769,1206.0464,553.6775,1210.3075,542.4595,1191.35,541.6769" style="stroke:#181818;stroke-width:1;"/></g><!--reverse link TH to liza_wt_merge--><g class="link" data-entity-1="ent0004" data-entity-2="ent0026" data-link-type="extension" data-source-line="100" id="lnk44"><path codeLine="100" d="M1207.2994,548.1245 C1253.8294,565.9445 1298.41,580.0669 1355,589.6369 C1394.89,596.3769 2047.31,587.5769 2083,606.6369 C2117.74,625.1869 2142.01,665.1569 2155.24,692.2569" fill="none" id="TH-backto-liza_wt_merge" style="stroke:#181818;stroke-width:1;stroke-dasharray:7,7;"/><polygon fill="none" points="1190.49,541.6869,1205.1535,553.7277,1209.4453,542.5214,1190.49,541.6869" style="stroke:#181818;stroke-width:1;"/></g><!--reverse link TH to liza_delete_agent--><g class="link" data-entity-1="ent0004" data-entity-2="ent0029" data-link-type="extension" data-source-line="101" id="lnk45"><path codeLine="101" d="M1207.0243,548.0879 C1253.5743,565.9579 1298.29,580.1269 1355,589.6369 C1425.69,601.4869 2580.26,575.8969 2645,606.6369 C2682.42,624.4069 2710.43,664.7769 2726.02,692.1669" fill="none" id="TH-backto-liza_delete_agent" style="stroke:#181818;stroke-width:1;stroke-dasharray:7,7;"/><polygon fill="none" points="1190.22,541.6369,1204.874,553.6893,1209.1746,542.4864,1190.22,541.6369" style="stroke:#181818;stroke-width:1;"/></g><?plantuml-src fLPHRzem47xFhx3wHBlIJdj4LQMDJcidA0WwxQ6Q8XCVu9BOhkt0w5PfFsA_SBzavoIaJWXAjUKboTrdt-VpTsTRRcCW0_v4oPzVlqbVCY1Nd2uqJNfas1-JAUWrQDBXme8MD3vF8dKS18f6Axe0SlI2EI8_0e9F55DZTkDoatkwH6dv096TI6b9ZnYhkLXuxbWknjGkcrop6LfFFiGOT2QfPfxBIXaRz2PKtUVZljsXoKDeC3BL4THGayBi8PTKi1XqmtJNkQV4Xc7v-ORapWayfc1iHyCZEVay7TrEnlt2TkpOboQZf33WZHzmOrqGqt70-oh_tBqZkuFiaNz3Fe4jM7O4JQ18eeDtl1MSaXd-75VIiy00e2T0sKZ4su990sAOMcgv58SHVPce6BwF5EWCsOpQHV8MbQ6UW-oLAMrE8nINH_o8K4FkhZr1pLCHTHH5fHf_kwZOPel6zoa1hQNUpVxioNQifPMHZAl2FbU5-RWgvkfsUXmAnxvcRwxGzc2aE9lGpH2CmQYbSmXsATd-e76-c1v1xdv6QYHo0Vqt2vmeZQqNpJqVNS8ykMR_-rpSndW4RftWzg9VWOaqLqu83TI4IkqqMa92qUdzxGVRwSGB-6Loip_bFx0OyWJkjgesh2gLRArzQc4XDGUpKqRfTtBkEZqVUGHpvZ7srN01bbnS5Btbyh89Oh2mKjE6MjEOC-JHYiCMvbPRXnL9VMdTHJsR0yJnaoUXfMRLoZ-T9To6Swb33MiEcrSEGAQCHwtfeOnbD5epb52z2cUnZ5R0sh3EAUVpTgROp0mmQ4v4FQTVfLvP3K16wb1QDpQCDBnY7n6OW5wy1iSWXeO9w-pUiuIB0xJoAKB4YVODmNwvVMebPXIM5Avs2T5AITumRrPfnLMXsxrq3Rv763UAMXnby7IlU5qbzifpnFY-iaaSyDTQk4D5mDVG32fQh4FPL0iJ1CZiukVPMLdILKDUm5NRI_dKiFLYQNGNfL7rbOLGDPUAsZDd-gbQ_NqE0Y5HDZDfhKo8d1UtDjoQgMLS4gkfm5HeIpekDLrtoBmxU-iErAcY6u5LDjkImM18-eCRTq17InupTz73KzqWQYJm8fBd5yk8vE8owCEs4u1WnCKF_W80?></g></svg>
