<?plantuml 1.2026.1?><svg xmlns="http://www.w3.org/2000/svg" xmlns:xlink="http://www.w3.org/1999/xlink" contentStyleType="text/css" data-diagram-type="CLASS" height="1085px" preserveAspectRatio="none" style="width:938px;height:1085px;background:#FFFFFF;" version="1.1" viewBox="0 0 938 1085" width="938px" zoomAndPan="magnify"><title>Liza &#8212; Code Diagram: Blackboard &amp; Persistence (internal/db, internal/filelock)</title><defs/><g><g class="title" data-source-line="1"><text fill="#000000" font-family="sans-serif" font-size="14" font-weight="bold" lengthAdjust="spacing" textLength="618.7002" x="152.9149" y="22.9951">Liza &#8212; Code Diagram: Blackboard &amp; Persistence (internal/db, internal/filelock)</text></g><!--cluster Blackboard (internal/db)--><g class="cluster" data-qualified-name="Blackboard .internal.db." data-source-line="3" id="ent0002"><path d="M75.03,43.2969 L269.4665,43.2969 A3.75,3.75 0 0 1 271.9665,45.7969 L278.9665,65.5938 L434.03,65.5938 A2.5,2.5 0 0 1 436.53,68.0938 L436.53,639.6269 A2.5,2.5 0 0 1 434.03,642.1269 L75.03,642.1269 A2.5,2.5 0 0 1 72.53,639.6269 L72.53,45.7969 A2.5,2.5 0 0 1 75.03,43.2969" fill="none" style="stroke:#000000;stroke-width:1.5;"/><line style="stroke:#000000;stroke-width:1.5;" x1="72.53" x2="278.9665" y1="65.5938" y2="65.5938"/><text fill="#000000" font-family="sans-serif" font-size="14" font-weight="bold" lengthAdjust="spacing" textLength="193.4365" x="76.53" y="58.292">Blackboard (internal/db)</text></g><!--cluster File Locking (internal/filelock)--><g class="cluster" data-qualified-name="File Locking .internal.filelock." data-source-line="36" id="ent0005"><path d="M95.03,691.1269 L332.5603,691.1269 A3.75,3.75 0 0 1 335.0603,693.6269 L342.0603,713.4237 L414.03,713.4237 A2.5,2.5 0 0 1 416.53,715.9237 L416.53,1075.5969 A2.5,2.5 0 0 1 414.03,1078.0969 L95.03,1078.0969 A2.5,2.5 0 0 1 92.53,1075.5969 L92.53,693.6269 A2.5,2.5 0 0 1 95.03,691.1269" fill="none" style="stroke:#000000;stroke-width:1.5;"/><line style="stroke:#000000;stroke-width:1.5;" x1="92.53" x2="342.0603" y1="713.4237" y2="713.4237"/><text fill="#000000" font-family="sans-serif" font-size="14" font-weight="bold" lengthAdjust="spacing" textLength="236.5303" x="96.53" y="706.122">File Locking (internal/filelock)</text></g><!--cluster Activity Log (internal/log)--><g class="cluster" data-qualified-name="Activity Log .internal.log." data-source-line="56" id="ent0008"><path d="M443.03,699.2769 L647.1257,699.2769 A3.75,3.75 0 0 1 649.6257,701.7769 L656.6257,721.5738 L929.03,721.5738 A2.5,2.5 0 0 1 931.53,724.0738 L931.53,877.2569 A2.5,2.5 0 0 1 929.03,879.7569 L443.03,879.7569 A2.5,2.5 0 0 1 440.53,877.2569 L440.53,701.7769 A2.5,2.5 0 0 1 443.03,699.2769" fill="none" style="stroke:#000000;stroke-width:1.5;"/><line style="stroke:#000000;stroke-width:1.5;" x1="440.53" x2="656.6257" y1="721.5738" y2="721.5738"/><text fill="#000000" font-family="sans-serif" font-size="14" font-weight="bold" lengthAdjust="spacing" textLength="203.0957" x="444.53" y="714.272">Activity Log (internal/log)</text></g><!--class Blackboard--><g class="entity" data-qualified-name="Blackboard .internal.db..Blackboard" data-source-line="4" id="ent0003"><rect fill="#F1F1F1" height="341.3438" rx="2.5" ry="2.5" style="stroke:#181818;stroke-width:0.5;" width="332.1201" x="88.47" y="284.7869"/><ellipse cx="211.0042" cy="300.7869" fill="#ADD1B2" rx="11" ry="11" style="stroke:#181818;stroke-width:1;"/><path d="M213.9729,306.4275 Q213.3948,306.7244 212.7542,306.865 Q212.1136,307.0213 211.4104,307.0213 Q208.9104,307.0213 207.5823,305.3806 Q206.2698,303.7244 206.2698,300.5994 Q206.2698,297.4744 207.5823,295.8181 Q208.9104,294.1619 211.4104,294.1619 Q212.1136,294.1619 212.7542,294.3181 Q213.4104,294.4744 213.9729,294.7713 L213.9729,297.49 Q213.3479,296.9119 212.7542,296.6463 Q212.1604,296.365 211.5354,296.365 Q210.1917,296.365 209.5042,297.4431 Q208.8167,298.5056 208.8167,300.5994 Q208.8167,302.6931 209.5042,303.7713 Q210.1917,304.8338 211.5354,304.8338 Q212.1604,304.8338 212.7542,304.5681 Q213.3479,304.2869 213.9729,303.7088 L213.9729,306.4275 Z " fill="#000000"/><text fill="#000000" font-family="sans-serif" font-size="14" lengthAdjust="spacing" textLength="78.5518" x="231.5042" y="305.6336">Blackboard</text><line style="stroke:#181818;stroke-width:0.5;" x1="89.47" x2="419.5901" y1="316.7869" y2="316.7869"/><g data-visibility-modifier="PRIVATE_FIELD"><rect fill="none" height="6" style="stroke:#C82930;stroke-width:1;" width="6" x="96.47" y="327.4353"/></g><text fill="#000000" font-family="sans-serif" font-size="14" lengthAdjust="spacing" textLength="120.6543" x="108.47" y="333.782">statePath : string</text><g data-visibility-modifier="PRIVATE_FIELD"><rect fill="none" height="6" style="stroke:#C82930;stroke-width:1;" width="6" x="96.47" y="343.7322"/></g><text fill="#000000" font-family="sans-serif" font-size="14" lengthAdjust="spacing" textLength="130.7236" x="108.47" y="350.0789">fileLock : *FileLock</text><g data-visibility-modifier="PRIVATE_FIELD"><rect fill="none" height="6" style="stroke:#C82930;stroke-width:1;" width="6" x="96.47" y="360.0291"/></g><text fill="#000000" font-family="sans-serif" font-size="14" lengthAdjust="spacing" textLength="179.5391" x="108.47" y="366.3757">cacheMu : sync.RWMutex</text><g data-visibility-modifier="PRIVATE_FIELD"><rect fill="none" height="6" style="stroke:#C82930;stroke-width:1;" width="6" x="96.47" y="376.3259"/></g><text fill="#000000" font-family="sans-serif" font-size="14" lengthAdjust="spacing" textLength="139.5898" x="108.47" y="382.6726">cachedData : []byte</text><g data-visibility-modifier="PRIVATE_FIELD"><rect fill="none" height="6" style="stroke:#C82930;stroke-width:1;" width="6" x="96.47" y="392.6228"/></g><text fill="#000000" font-family="sans-serif" font-size="14" lengthAdjust="spacing" textLength="178.4453" x="108.47" y="398.9695">cachedMtime : time.Time</text><line style="stroke:#181818;stroke-width:0.5;" x1="89.47" x2="419.5901" y1="406.2713" y2="406.2713"/><g data-visibility-modifier="PUBLIC_METHOD"><ellipse cx="99.47" cy="419.9197" fill="#84BE84" rx="3" ry="3" style="stroke:#038048;stroke-width:1;"/></g><text fill="#000000" font-family="sans-serif" font-size="14" lengthAdjust="spacing" textLength="158.6758" x="108.47" y="423.2664">Read() : (*State, error)</text><g data-visibility-modifier="PUBLIC_METHOD"><ellipse cx="99.47" cy="436.2166" fill="#84BE84" rx="3" ry="3" style="stroke:#038048;stroke-width:1;"/></g><text fill="#000000" font-family="sans-serif" font-size="14" lengthAdjust="spacing" textLength="186.5732" x="108.47" y="439.5632">ReadRaw() : ([]byte, error)</text><g data-visibility-modifier="PUBLIC_METHOD"><ellipse cx="99.47" cy="452.5134" fill="#84BE84" rx="3" ry="3" style="stroke:#038048;stroke-width:1;"/></g><text fill="#000000" font-family="sans-serif" font-size="14" lengthAdjust="spacing" textLength="211.1006" x="108.47" y="455.8601">ReadCached() : (*State, error)</text><g data-visibility-modifier="PUBLIC_METHOD"><ellipse cx="99.47" cy="468.8103" fill="#84BE84" rx="3" ry="3" style="stroke:#038048;stroke-width:1;"/></g><text fill="#000000" font-family="sans-serif" font-size="14" lengthAdjust="spacing" textLength="123.6758" x="108.47" y="472.157">InvalidateCache()</text><g data-visibility-modifier="PUBLIC_METHOD"><ellipse cx="99.47" cy="485.1072" fill="#84BE84" rx="3" ry="3" style="stroke:#038048;stroke-width:1;"/></g><text fill="#000000" font-family="sans-serif" font-size="14" lengthAdjust="spacing" textLength="180.5508" x="108.47" y="488.4539">Write(state *State) : error</text><g data-visibility-modifier="PUBLIC_METHOD"><ellipse cx="99.47" cy="501.4041" fill="#84BE84" rx="3" ry="3" style="stroke:#038048;stroke-width:1;"/></g><text fill="#000000" font-family="sans-serif" font-size="14" lengthAdjust="spacing" textLength="248.124" x="108.47" y="504.7507">Modify(fn func(*State) error) : error</text><g data-visibility-modifier="PUBLIC_METHOD"><ellipse cx="99.47" cy="517.7009" fill="#84BE84" rx="3" ry="3" style="stroke:#038048;stroke-width:1;"/></g><text fill="#000000" font-family="sans-serif" font-size="14" lengthAdjust="spacing" textLength="264.8447" x="108.47" y="521.0476">GetTask(taskID string) : (*Task, error)</text><g data-visibility-modifier="PUBLIC_METHOD"><ellipse cx="99.47" cy="533.9978" fill="#84BE84" rx="3" ry="3" style="stroke:#038048;stroke-width:1;"/></g><text fill="#000000" font-family="sans-serif" font-size="14" lengthAdjust="spacing" textLength="293.6309" x="108.47" y="537.3445">GetAgent(agentID string) : (*Agent, error)</text><g data-visibility-modifier="PUBLIC_METHOD"><ellipse cx="99.47" cy="550.2947" fill="#84BE84" rx="3" ry="3" style="stroke:#038048;stroke-width:1;"/></g><text fill="#000000" font-family="sans-serif" font-size="14" lengthAdjust="spacing" textLength="209.3027" x="108.47" y="553.6414">UpdateTask(taskID, fn) : error</text><g data-visibility-modifier="PUBLIC_METHOD"><ellipse cx="99.47" cy="566.5916" fill="#84BE84" rx="3" ry="3" style="stroke:#038048;stroke-width:1;"/></g><text fill="#000000" font-family="sans-serif" font-size="14" lengthAdjust="spacing" textLength="229.1816" x="108.47" y="569.9382">UpdateAgent(agentID, fn) : error</text><g data-visibility-modifier="PUBLIC_METHOD"><ellipse cx="99.47" cy="582.8884" fill="#84BE84" rx="3" ry="3" style="stroke:#038048;stroke-width:1;"/></g><text fill="#000000" font-family="sans-serif" font-size="14" lengthAdjust="spacing" textLength="306.1201" x="108.47" y="586.2351">WithLockTimeout(d Duration) : *Blackboard</text><g data-visibility-modifier="PUBLIC_METHOD"><ellipse cx="99.47" cy="599.1853" fill="#84BE84" rx="3" ry="3" style="stroke:#038048;stroke-width:1;"/></g><text fill="#000000" font-family="sans-serif" font-size="14" lengthAdjust="spacing" textLength="109.4297" x="108.47" y="602.532">EnableMetrics()</text><g data-visibility-modifier="PUBLIC_METHOD"><ellipse cx="99.47" cy="615.4822" fill="#84BE84" rx="3" ry="3" style="stroke:#038048;stroke-width:1;"/></g><text fill="#000000" font-family="sans-serif" font-size="14" lengthAdjust="spacing" textLength="285.3594" x="108.47" y="618.8289">GetMetricsRecorder() : *MetricsRecorder</text></g><!--class Factory--><g class="entity" data-qualified-name="Blackboard .internal.db..Factory" data-source-line="26" id="ent0004"><rect fill="#F1F1F1" height="129.4844" rx="2.5" ry="2.5" style="stroke:#181818;stroke-width:0.5;" width="259.9873" x="124.54" y="78.2969"/><ellipse cx="158.3886" cy="94.2969" fill="#ADD1B2" rx="11" ry="11" style="stroke:#181818;stroke-width:1;"/><path d="M161.3573,99.9375 Q160.7792,100.2344 160.1386,100.375 Q159.498,100.5313 158.7948,100.5313 Q156.2948,100.5313 154.9667,98.8906 Q153.6542,97.2344 153.6542,94.1094 Q153.6542,90.9844 154.9667,89.3281 Q156.2948,87.6719 158.7948,87.6719 Q159.498,87.6719 160.1386,87.8281 Q160.7948,87.9844 161.3573,88.2813 L161.3573,91 Q160.7323,90.4219 160.1386,90.1563 Q159.5448,89.875 158.9198,89.875 Q157.5761,89.875 156.8886,90.9531 Q156.2011,92.0156 156.2011,94.1094 Q156.2011,96.2031 156.8886,97.2813 Q157.5761,98.3438 158.9198,98.3438 Q159.5448,98.3438 160.1386,98.0781 Q160.7323,97.7969 161.3573,97.2188 L161.3573,99.9375 Z " fill="#000000"/><text fill="#000000" font-family="sans-serif" font-size="14" lengthAdjust="spacing" textLength="186.1016" x="176.5772" y="99.1436">For(statePath) &#171;singleton&#187;</text><line style="stroke:#181818;stroke-width:0.5;" x1="125.54" x2="383.5273" y1="110.2969" y2="110.2969"/><text fill="#000000" font-family="sans-serif" font-size="14" lengthAdjust="spacing" text-decoration="underline" textLength="247.9873" x="130.54" y="127.292">instances : map[string]*Blackboard</text><text fill="#000000" font-family="sans-serif" font-size="14" lengthAdjust="spacing" text-decoration="underline" textLength="116.0674" x="130.54" y="143.5889">mu : sync.Mutex</text><line style="stroke:#181818;stroke-width:0.5;" x1="125.54" x2="383.5273" y1="150.8906" y2="150.8906"/><text fill="#000000" font-family="sans-serif" font-size="14" lengthAdjust="spacing" text-decoration="underline" textLength="208.9336" x="130.54" y="167.8857">For(path string) : *Blackboard</text><text fill="#000000" font-family="sans-serif" font-size="14" lengthAdjust="spacing" text-decoration="underline" textLength="217.0957" x="130.54" y="184.1826">New(path string) : *Blackboard</text><text fill="#000000" font-family="sans-serif" font-size="14" lengthAdjust="spacing" text-decoration="underline" textLength="117.5029" x="130.54" y="200.4795">ResetInstances()</text></g><!--class FileLock--><g class="entity" data-qualified-name="File Locking .internal.filelock..FileLock" data-source-line="37" id="ent0006"><rect fill="#F1F1F1" height="145.7813" rx="2.5" ry="2.5" style="stroke:#181818;stroke-width:0.5;" width="220.6943" x="144.18" y="726.1269"/><ellipse cx="221.9696" cy="742.1269" fill="#ADD1B2" rx="11" ry="11" style="stroke:#181818;stroke-width:1;"/><path d="M224.9383,747.7675 Q224.3602,748.0644 223.7196,748.205 Q223.0789,748.3612 222.3758,748.3612 Q219.8758,748.3612 218.5477,746.7206 Q217.2352,745.0644 217.2352,741.9394 Q217.2352,738.8144 218.5477,737.1581 Q219.8758,735.5019 222.3758,735.5019 Q223.0789,735.5019 223.7196,735.6581 Q224.3758,735.8144 224.9383,736.1112 L224.9383,738.83 Q224.3133,738.2519 223.7196,737.9862 Q223.1258,737.705 222.5008,737.705 Q221.1571,737.705 220.4696,738.7831 Q219.7821,739.8456 219.7821,741.9394 Q219.7821,744.0331 220.4696,745.1112 Q221.1571,746.1737 222.5008,746.1737 Q223.1258,746.1737 223.7196,745.9081 Q224.3133,745.6269 224.9383,745.0487 L224.9383,747.7675 Z " fill="#000000"/><text fill="#000000" font-family="sans-serif" font-size="14" lengthAdjust="spacing" textLength="56.6152" x="242.4696" y="746.9736">FileLock</text><line style="stroke:#181818;stroke-width:0.5;" x1="145.18" x2="363.8743" y1="758.1269" y2="758.1269"/><g data-visibility-modifier="PRIVATE_FIELD"><rect fill="none" height="6" style="stroke:#C82930;stroke-width:1;" width="6" x="152.18" y="768.7753"/></g><text fill="#000000" font-family="sans-serif" font-size="14" lengthAdjust="spacing" textLength="85.6338" x="164.18" y="775.122">path : string</text><g data-visibility-modifier="PRIVATE_FIELD"><rect fill="none" height="6" style="stroke:#C82930;stroke-width:1;" width="6" x="152.18" y="785.0722"/></g><text fill="#000000" font-family="sans-serif" font-size="14" lengthAdjust="spacing" textLength="79.1875" x="164.18" y="791.4189">fd : *os.File</text><g data-visibility-modifier="PRIVATE_FIELD"><rect fill="none" height="6" style="stroke:#C82930;stroke-width:1;" width="6" x="152.18" y="801.3691"/></g><text fill="#000000" font-family="sans-serif" font-size="14" lengthAdjust="spacing" textLength="194.6943" x="164.18" y="807.7157">recorder : *MetricsRecorder</text><line style="stroke:#181818;stroke-width:0.5;" x1="145.18" x2="363.8743" y1="815.0175" y2="815.0175"/><g data-visibility-modifier="PUBLIC_METHOD"><ellipse cx="155.18" cy="828.6659" fill="#84BE84" rx="3" ry="3" style="stroke:#038048;stroke-width:1;"/></g><text fill="#000000" font-family="sans-serif" font-size="14" lengthAdjust="spacing" textLength="91.1572" x="164.18" y="832.0126">Lock() : error</text><g data-visibility-modifier="PUBLIC_METHOD"><ellipse cx="155.18" cy="844.9628" fill="#84BE84" rx="3" ry="3" style="stroke:#038048;stroke-width:1;"/></g><text fill="#000000" font-family="sans-serif" font-size="14" lengthAdjust="spacing" textLength="106.3672" x="164.18" y="848.3095">Unlock() : error</text><g data-visibility-modifier="PUBLIC_METHOD"><ellipse cx="155.18" cy="861.2597" fill="#84BE84" rx="3" ry="3" style="stroke:#038048;stroke-width:1;"/></g><text fill="#000000" font-family="sans-serif" font-size="14" lengthAdjust="spacing" textLength="163.4814" x="164.18" y="864.6064">TryLock() : (bool, error)</text></g><!--class MetricsRecorder--><g class="entity" data-qualified-name="File Locking .internal.filelock..MetricsRecorder" data-source-line="47" id="ent0007"><rect fill="#F1F1F1" height="113.1875" rx="2.5" ry="2.5" style="stroke:#181818;stroke-width:0.5;" width="291.2344" x="108.91" y="948.9069"/><ellipse cx="193.0604" cy="964.9069" fill="#ADD1B2" rx="11" ry="11" style="stroke:#181818;stroke-width:1;"/><path d="M196.0291,970.5475 Q195.451,970.8444 194.8104,970.985 Q194.1698,971.1412 193.4666,971.1412 Q190.9666,971.1412 189.6385,969.5006 Q188.326,967.8444 188.326,964.7194 Q188.326,961.5944 189.6385,959.9381 Q190.9666,958.2819 193.4666,958.2819 Q194.1698,958.2819 194.8104,958.4381 Q195.4666,958.5944 196.0291,958.8912 L196.0291,961.61 Q195.4041,961.0319 194.8104,960.7662 Q194.2166,960.485 193.5916,960.485 Q192.2479,960.485 191.5604,961.5631 Q190.8729,962.6256 190.8729,964.7194 Q190.8729,966.8131 191.5604,967.8912 Q192.2479,968.9537 193.5916,968.9537 Q194.2166,968.9537 194.8104,968.6881 Q195.4041,968.4069 196.0291,967.8287 L196.0291,970.5475 Z " fill="#000000"/><text fill="#000000" font-family="sans-serif" font-size="14" lengthAdjust="spacing" textLength="114.4336" x="213.5604" y="969.7536">MetricsRecorder</text><line style="stroke:#181818;stroke-width:0.5;" x1="109.91" x2="399.1444" y1="980.9069" y2="980.9069"/><g data-visibility-modifier="PRIVATE_FIELD"><rect fill="none" height="6" style="stroke:#C82930;stroke-width:1;" width="6" x="116.91" y="991.5553"/></g><text fill="#000000" font-family="sans-serif" font-size="14" lengthAdjust="spacing" textLength="116.0674" x="128.91" y="997.902">mu : sync.Mutex</text><g data-visibility-modifier="PRIVATE_FIELD"><rect fill="none" height="6" style="stroke:#C82930;stroke-width:1;" width="6" x="116.91" y="1007.8522"/></g><text fill="#000000" font-family="sans-serif" font-size="14" lengthAdjust="spacing" textLength="174.7471" x="128.91" y="1014.1989">operations : []LockMetric</text><line style="stroke:#181818;stroke-width:0.5;" x1="109.91" x2="399.1444" y1="1021.5006" y2="1021.5006"/><g data-visibility-modifier="PUBLIC_METHOD"><ellipse cx="119.91" cy="1035.1491" fill="#84BE84" rx="3" ry="3" style="stroke:#038048;stroke-width:1;"/></g><text fill="#000000" font-family="sans-serif" font-size="14" lengthAdjust="spacing" textLength="265.2344" x="128.91" y="1038.4957">Record(op string, d Duration, ok bool)</text><g data-visibility-modifier="PUBLIC_METHOD"><ellipse cx="119.91" cy="1051.4459" fill="#84BE84" rx="3" ry="3" style="stroke:#038048;stroke-width:1;"/></g><text fill="#000000" font-family="sans-serif" font-size="14" lengthAdjust="spacing" textLength="210.6699" x="128.91" y="1054.7926">Summary() : MetricsSummary</text></g><!--class ActivityLog--><g class="entity" data-qualified-name="Activity Log .internal.log..ActivityLog" data-source-line="57" id="ent0009"><rect fill="#F1F1F1" height="80.5938" rx="2.5" ry="2.5" style="stroke:#181818;stroke-width:0.5;" width="242.6787" x="673.19" y="758.7169"/><ellipse cx="751.3521" cy="774.7169" fill="#ADD1B2" rx="11" ry="11" style="stroke:#181818;stroke-width:1;"/><path d="M754.3209,780.3575 Q753.7427,780.6544 753.1021,780.795 Q752.4615,780.9513 751.7584,780.9513 Q749.2584,780.9513 747.9302,779.3106 Q746.6177,777.6544 746.6177,774.5294 Q746.6177,771.4044 747.9302,769.7481 Q749.2584,768.0919 751.7584,768.0919 Q752.4615,768.0919 753.1021,768.2481 Q753.7584,768.4044 754.3209,768.7013 L754.3209,771.42 Q753.6959,770.8419 753.1021,770.5763 Q752.5084,770.295 751.8834,770.295 Q750.5396,770.295 749.8521,771.3731 Q749.1646,772.4356 749.1646,774.5294 Q749.1646,776.6231 749.8521,777.7013 Q750.5396,778.7638 751.8834,778.7638 Q752.5084,778.7638 753.1021,778.4981 Q753.6959,778.2169 754.3209,777.6388 L754.3209,780.3575 Z " fill="#000000"/><text fill="#000000" font-family="sans-serif" font-size="14" lengthAdjust="spacing" textLength="77.8545" x="771.8521" y="779.5636">ActivityLog</text><line style="stroke:#181818;stroke-width:0.5;" x1="674.19" x2="914.8687" y1="790.7169" y2="790.7169"/><g data-visibility-modifier="PRIVATE_FIELD"><rect fill="none" height="6" style="stroke:#C82930;stroke-width:1;" width="6" x="681.19" y="801.3653"/></g><text fill="#000000" font-family="sans-serif" font-size="14" lengthAdjust="spacing" textLength="106.5313" x="693.19" y="807.712">logPath : string</text><line style="stroke:#181818;stroke-width:0.5;" x1="674.19" x2="914.8687" y1="815.0138" y2="815.0138"/><g data-visibility-modifier="PUBLIC_METHOD"><ellipse cx="684.19" cy="828.6622" fill="#84BE84" rx="3" ry="3" style="stroke:#038048;stroke-width:1;"/></g><text fill="#000000" font-family="sans-serif" font-size="14" lengthAdjust="spacing" textLength="216.6787" x="693.19" y="832.0089">Append(entry LogEntry) : error</text></g><!--class LogEntry--><g class="entity" data-qualified-name="Activity Log .internal.log..LogEntry" data-source-line="63" id="ent0010"><rect fill="#F1F1F1" height="129.4844" rx="2.5" ry="2.5" style="stroke:#181818;stroke-width:0.5;" width="182.1055" x="456.48" y="734.2769"/><ellipse cx="512.0322" cy="750.2769" fill="#ADD1B2" rx="11" ry="11" style="stroke:#181818;stroke-width:1;"/><path d="M515.001,755.9175 Q514.4229,756.2144 513.7822,756.355 Q513.1416,756.5113 512.4385,756.5113 Q509.9385,756.5113 508.6104,754.8706 Q507.2979,753.2144 507.2979,750.0894 Q507.2979,746.9644 508.6104,745.3081 Q509.9385,743.6519 512.4385,743.6519 Q513.1416,743.6519 513.7822,743.8081 Q514.4385,743.9644 515.001,744.2613 L515.001,746.98 Q514.376,746.4019 513.7822,746.1363 Q513.1885,745.855 512.5635,745.855 Q511.2197,745.855 510.5322,746.9331 Q509.8447,747.9956 509.8447,750.0894 Q509.8447,752.1831 510.5322,753.2613 Q511.2197,754.3238 512.5635,754.3238 Q513.1885,754.3238 513.7822,754.0581 Q514.376,753.7769 515.001,753.1988 L515.001,755.9175 Z " fill="#000000"/><text fill="#000000" font-family="sans-serif" font-size="14" lengthAdjust="spacing" textLength="62.501" x="532.5322" y="755.1236">LogEntry</text><line style="stroke:#181818;stroke-width:0.5;" x1="457.48" x2="637.5855" y1="766.2769" y2="766.2769"/><text fill="#000000" font-family="sans-serif" font-size="14" lengthAdjust="spacing" textLength="162.9688" x="462.48" y="783.272">Timestamp : time.Time</text><text fill="#000000" font-family="sans-serif" font-size="14" lengthAdjust="spacing" textLength="97.8975" x="462.48" y="799.5689">Action : string</text><text fill="#000000" font-family="sans-serif" font-size="14" lengthAdjust="spacing" textLength="101.2471" x="462.48" y="815.8657">TaskID : string</text><text fill="#000000" font-family="sans-serif" font-size="14" lengthAdjust="spacing" textLength="110.1543" x="462.48" y="832.1626">AgentID : string</text><text fill="#000000" font-family="sans-serif" font-size="14" lengthAdjust="spacing" textLength="170.1055" x="462.48" y="848.4595">Details : map[string]any</text><line style="stroke:#181818;stroke-width:0.5;" x1="457.48" x2="637.5855" y1="855.7613" y2="855.7613"/></g><!--class State--><g class="entity" data-qualified-name="State" data-source-line="74" id="ent0013"><rect fill="#F1F1F1" height="48" rx="2.5" ry="2.5" style="stroke:#181818;stroke-width:0.5;" width="69.0576" x="7" y="775.0169"/><ellipse cx="22" cy="791.0169" fill="#ADD1B2" rx="11" ry="11" style="stroke:#181818;stroke-width:1;"/><path d="M24.9688,796.6575 Q24.3906,796.9544 23.75,797.095 Q23.1094,797.2513 22.4063,797.2513 Q19.9063,797.2513 18.5781,795.6106 Q17.2656,793.9544 17.2656,790.8294 Q17.2656,787.7044 18.5781,786.0481 Q19.9063,784.3919 22.4063,784.3919 Q23.1094,784.3919 23.75,784.5481 Q24.4063,784.7044 24.9688,785.0013 L24.9688,787.72 Q24.3438,787.1419 23.75,786.8763 Q23.1563,786.595 22.5313,786.595 Q21.1875,786.595 20.5,787.6731 Q19.8125,788.7356 19.8125,790.8294 Q19.8125,792.9231 20.5,794.0013 Q21.1875,795.0638 22.5313,795.0638 Q23.1563,795.0638 23.75,794.7981 Q24.3438,794.5169 24.9688,793.9388 L24.9688,796.6575 Z " fill="#000000"/><text fill="#000000" font-family="sans-serif" font-size="14" lengthAdjust="spacing" textLength="37.0576" x="36" y="795.8636">State</text><line style="stroke:#181818;stroke-width:0.5;" x1="8" x2="75.0576" y1="807.0169" y2="807.0169"/><line style="stroke:#181818;stroke-width:0.5;" x1="8" x2="75.0576" y1="815.0169" y2="815.0169"/></g><g class="entity" data-qualified-name="GMN17" data-source-line="79" id="ent0018"><path d="M455.9,397.4869 L455.9,451.4569 L421.01,455.4569 L455.9,459.4569 L455.9,513.4166 A0,0 0 0 0 455.9,513.4166 L647.1568,513.4166 A0,0 0 0 0 647.1568,513.4166 L647.1568,407.4869 L637.1568,397.4869 L455.9,397.4869 A0,0 0 0 0 455.9,397.4869" fill="#FEFFDD" style="stroke:#181818;stroke-width:0.5;"/><path d="M637.1568,397.4869 L637.1568,407.4869 L647.1568,407.4869 L637.1568,397.4869" fill="#FEFFDD" style="stroke:#181818;stroke-width:0.5;"/><text fill="#000000" font-family="sans-serif" font-size="13" lengthAdjust="spacing" textLength="170.2568" x="461.9" y="414.5538">Atomic read-modify-write:</text><text fill="#000000" font-family="sans-serif" font-size="13" lengthAdjust="spacing" textLength="91.5015" x="461.9" y="429.6866">1. Lock (flock)</text><text fill="#000000" font-family="sans-serif" font-size="13" lengthAdjust="spacing" textLength="89.21" x="461.9" y="444.8194">2. Read YAML</text><text fill="#000000" font-family="sans-serif" font-size="13" lengthAdjust="spacing" textLength="116.2383" x="461.9" y="459.9522">3. Apply mutation</text><text fill="#000000" font-family="sans-serif" font-size="13" lengthAdjust="spacing" textLength="90.8667" x="461.9" y="475.085">4. Write YAML</text><text fill="#000000" font-family="sans-serif" font-size="13" lengthAdjust="spacing" textLength="60.5313" x="461.9" y="490.2178">5. Unlock</text><text fill="#000000" font-family="sans-serif" font-size="13" lengthAdjust="spacing" textLength="123.4365" x="461.9" y="505.3506">6. Invalidate cache</text></g><!--link Factory to Blackboard--><g class="link" data-entity-1="ent0004" data-entity-2="ent0003" data-link-type="dependency" data-source-line="72" id="lnk11"><path codeLine="72" d="M254.53,207.9869 C254.53,230.6169 254.53,251.2569 254.53,278.5069" fill="none" id="Factory-to-Blackboard" style="stroke:#181818;stroke-width:1;stroke-dasharray:7,7;"/><polygon fill="#181818" points="254.53,284.5069,258.53,275.5069,254.53,279.5069,250.53,275.5069,254.53,284.5069" style="stroke:#181818;stroke-width:1;"/><text fill="#000000" font-family="sans-serif" font-size="13" lengthAdjust="spacing" textLength="48.3247" x="255.53" y="250.8538">creates</text></g><!--link Blackboard to FileLock--><g class="link" data-entity-1="ent0003" data-entity-2="ent0006" data-link-type="dependency" data-source-line="73" id="lnk12"><path codeLine="73" d="M254.53,626.4869 C254.53,661.4469 254.53,690.4469 254.53,719.6269" fill="none" id="Blackboard-to-FileLock" style="stroke:#181818;stroke-width:1;"/><polygon fill="#181818" points="254.53,725.6269,258.53,716.6269,254.53,720.6269,250.53,716.6269,254.53,725.6269" style="stroke:#181818;stroke-width:1;"/><text fill="#000000" font-family="sans-serif" font-size="13" lengthAdjust="spacing" textLength="55.3325" x="255.53" y="671.1938">acquires</text></g><!--link Blackboard to State--><g class="link" data-entity-1="ent0003" data-entity-2="ent0013" data-link-type="dependency" data-source-line="74" id="lnk14"><path codeLine="74" d="M127.59,626.3769 C115.2,645.1869 103.27,664.3369 92.53,683.1269 C75.1,713.6369 61.6003,745.617 52.3603,769.307" fill="none" id="Blackboard-to-State" style="stroke:#181818;stroke-width:1;stroke-dasharray:7,7;"/><polygon fill="#181818" points="50.18,774.8969,57.177,767.9656,51.9969,770.2387,49.7238,765.0586,50.18,774.8969" style="stroke:#181818;stroke-width:1;"/><text fill="#000000" font-family="sans-serif" font-size="13" lengthAdjust="spacing" textLength="80.1709" x="104.53" y="671.1938">reads/writes</text></g><!--link FileLock to MetricsRecorder--><g class="link" data-entity-1="ent0006" data-entity-2="ent0007" data-link-type="dependency" data-source-line="75" id="lnk15"><path codeLine="75" d="M254.53,872.3969 C254.53,897.4469 254.53,919.1169 254.53,942.6269" fill="none" id="FileLock-to-MetricsRecorder" style="stroke:#181818;stroke-width:1;"/><polygon fill="#181818" points="254.53,948.6269,258.53,939.6269,254.53,943.6269,250.53,939.6269,254.53,948.6269" style="stroke:#181818;stroke-width:1;"/><text fill="#000000" font-family="sans-serif" font-size="13" lengthAdjust="spacing" textLength="65.9966" x="255.53" y="914.9738">records to</text></g><!--link Blackboard to ActivityLog--><g class="link" data-entity-1="ent0003" data-entity-2="ent0009" data-link-type="dependency" data-source-line="76" id="lnk16"><path codeLine="76" d="M400.97,626.4669 C413.02,635.3469 425.57,643.3769 438.53,650.1269 C525.42,695.4369 567.14,642.9669 656.53,683.1269 C695.63,700.6969 728.2908,728.3008 754.0808,754.0108" fill="none" id="Blackboard-to-ActivityLog" style="stroke:#181818;stroke-width:1;stroke-dasharray:7,7;"/><polygon fill="#181818" points="758.33,758.2469,754.7802,749.06,754.789,754.7168,749.1321,754.7256,758.33,758.2469" style="stroke:#181818;stroke-width:1;"/><text fill="#000000" font-family="sans-serif" font-size="13" lengthAdjust="spacing" textLength="50.6733" x="631.53" y="671.1938">triggers</text></g><?plantuml-src bLPBRjim4Dth58Ci2jgr5VIxy2A06oT5WBW871T14GG1BT4sOObKIRgf6XZe8NgB7g6x7AKdwP2IPKgMMzGBcUAy-N3cpL26cuJ19Vz6uVVt7t0gOmOZJXUAfWDubz1eDPDKnV0ChfZIN1ic8WQ42yEKeCbnFEj1zJBd2KjajEe4GOQQTC7WoBFXQtMEu340_4K9rThtL6pRNn-qeOPTKRE40QuL5mjFQBrTeZUKTS_BjIUEQBHauxNLp4KKJcx6QyE-DW7nY1gAcDkxMMxOddHiUCfGRF_2AJugnFrzjNmE4qPZqa4SwLxRa7l0b9Agqu1Cw4E1AhmTG9qwp_ymTo6-q8J7A7Hmuijk53UCkDn1OS3QSYOyr5Z6V9wJkO3vMaHa2omyjU3VCpEbUaKCFYv6PJcA8Er-IuoeCLmmOGYrpuQEaxGeVSpieJnFFPYBjdWAOCt18UWDDqlB3bj0kJOaXj5QKSEbGtTtvFDqpWIT9MpCCEH8ayQnokq9YwIAcNArwZOsdSOcy4X-T2uLgIZTWQUV6jEHC2F5qwyZe1hEQMIaohqUUBHu7csmoN25lQVHLKgpsoANTst1LpffnVuwzptkLbWRMsOxRLUalzh-m1x-2pzXcfcBxI7AX6w2ZJSgR1E3hHFQyuP5DLNg8sFRyhM1aHsQ5R6DJ-hGQddxgYpMeVhjTRhrI5hfA993egdAApKoapAfqRv6aKOCjRCTgcOVPCOAEcitoQopmj2XQMMj4vcLUUh1hY5w85TWO_GPVxrEKwfoTu0omdAhfOh3oF0ltEIOAh-AYLmq2hW5Mfn_JaIsZ_pQ8OPPnaHCiE-LStLc5_NirpAxXNYkx3X0FgPPwu2tuKcn7yMqc7zx-yDooEq9HinGdZJwbWelTzks3yCJ_oOSGAGOJWiTU9lz_icE-WEWqUSrLtM8DUEcEShHGAoF7-oDe8DApnffKcrGDeC68vlM_59XhXHVBF1h80Y4H2VujZGWvr1h_w6HAO-S_txghfg-YsA0iXUXwoCWy-9h0U1bwAu--3GSN-Bhgz3MDycHyyRH4lTUXyN5jiMy2SkUm_NRqBiGYwixG7Q0ZI_u0m00?></g></svg>
