<?plantuml 1.2026.1?><svg xmlns="http://www.w3.org/2000/svg" xmlns:xlink="http://www.w3.org/1999/xlink" contentStyleType="text/css" data-diagram-type="CLASS" height="955px" preserveAspectRatio="none" style="width:2206px;height:955px;background:#FFFFFF;" version="1.1" viewBox="0 0 2206 955" width="2206px" zoomAndPan="magnify"><title>Liza &#8212; Code Diagram: Supervisor &amp; Git (internal/agent, internal/git)</title><defs/><g><g class="title" data-source-line="1"><text fill="#000000" font-family="sans-serif" font-size="14" font-weight="bold" lengthAdjust="spacing" textLength="536.2041" x="827.8979" y="22.9951">Liza &#8212; Code Diagram: Supervisor &amp; Git (internal/agent, internal/git)</text></g><!--cluster Supervisor (internal/agent)--><g class="cluster" data-qualified-name="Supervisor .internal.agent." data-source-line="3" id="ent0002"><path d="M8.5,43.2969 L225.2285,43.2969 A3.75,3.75 0 0 1 227.7285,45.7969 L234.7285,65.5938 L670.5,65.5938 A2.5,2.5 0 0 1 673,68.0938 L673,945.5169 A2.5,2.5 0 0 1 670.5,948.0169 L8.5,948.0169 A2.5,2.5 0 0 1 6,945.5169 L6,45.7969 A2.5,2.5 0 0 1 8.5,43.2969" fill="none" style="stroke:#000000;stroke-width:1.5;"/><line style="stroke:#000000;stroke-width:1.5;" x1="6" x2="234.7285" y1="65.5938" y2="65.5938"/><text fill="#000000" font-family="sans-serif" font-size="14" font-weight="bold" lengthAdjust="spacing" textLength="215.7285" x="10" y="58.292">Supervisor (internal/agent)</text></g><!--cluster Prompt Builder (internal/prompts)--><g class="cluster" data-qualified-name="Prompt Builder .internal.prompts." data-source-line="47" id="ent0008"><path d="M824.5,344.1169 L1096.1484,344.1169 A3.75,3.75 0 0 1 1098.6484,346.6169 L1105.6484,366.4138 L1227.5,366.4138 A2.5,2.5 0 0 1 1230,368.9138 L1230,570.9969 A2.5,2.5 0 0 1 1227.5,573.4969 L824.5,573.4969 A2.5,2.5 0 0 1 822,570.9969 L822,346.6169 A2.5,2.5 0 0 1 824.5,344.1169" fill="none" style="stroke:#000000;stroke-width:1.5;"/><line style="stroke:#000000;stroke-width:1.5;" x1="822" x2="1105.6484" y1="366.4138" y2="366.4138"/><text fill="#000000" font-family="sans-serif" font-size="14" font-weight="bold" lengthAdjust="spacing" textLength="270.6484" x="826" y="359.112">Prompt Builder (internal/prompts)</text></g><!--cluster Git Operations (internal/git)--><g class="cluster" data-qualified-name="Git Operations .internal.git." data-source-line="61" id="ent0010"><path d="M1256.5,303.3769 L1478.9023,303.3769 A3.75,3.75 0 0 1 1481.4023,305.8769 L1488.4023,325.6738 L1788.5,325.6738 A2.5,2.5 0 0 1 1791,328.1738 L1791,785.6269 A2.5,2.5 0 0 1 1788.5,788.1269 L1256.5,788.1269 A2.5,2.5 0 0 1 1254,785.6269 L1254,305.8769 A2.5,2.5 0 0 1 1256.5,303.3769" fill="none" style="stroke:#000000;stroke-width:1.5;"/><line style="stroke:#000000;stroke-width:1.5;" x1="1254" x2="1488.4023" y1="325.6738" y2="325.6738"/><text fill="#000000" font-family="sans-serif" font-size="14" font-weight="bold" lengthAdjust="spacing" textLength="221.4023" x="1258" y="318.372">Git Operations (internal/git)</text></g><!--cluster Pipeline (internal/pipeline)--><g class="cluster" data-qualified-name="Pipeline .internal.pipeline." data-source-line="96" id="ent0015"><path d="M1817.5,100.3369 L2030.3867,100.3369 A3.75,3.75 0 0 1 2032.8867,102.8369 L2039.8867,122.6338 L2196.5,122.6338 A2.5,2.5 0 0 1 2199,125.1338 L2199,579.1469 A2.5,2.5 0 0 1 2196.5,581.6469 L1817.5,581.6469 A2.5,2.5 0 0 1 1815,579.1469 L1815,102.8369 A2.5,2.5 0 0 1 1817.5,100.3369" fill="none" style="stroke:#000000;stroke-width:1.5;"/><line style="stroke:#000000;stroke-width:1.5;" x1="1815" x2="2039.8867" y1="122.6338" y2="122.6338"/><text fill="#000000" font-family="sans-serif" font-size="14" font-weight="bold" lengthAdjust="spacing" textLength="211.8867" x="1819" y="115.332">Pipeline (internal/pipeline)</text></g><!--class SupervisorConfig--><g class="entity" data-qualified-name="Supervisor .internal.agent..SupervisorConfig" data-source-line="4" id="ent0003"><rect fill="#F1F1F1" height="227.2656" rx="2.5" ry="2.5" style="stroke:#181818;stroke-width:0.5;" width="213.1748" x="22.41" y="354.6769"/><ellipse cx="65.0626" cy="370.6769" fill="#ADD1B2" rx="11" ry="11" style="stroke:#181818;stroke-width:1;"/><path d="M68.0313,376.3175 Q67.4532,376.6144 66.8126,376.755 Q66.172,376.9113 65.4688,376.9113 Q62.9688,376.9113 61.6407,375.2706 Q60.3282,373.6144 60.3282,370.4894 Q60.3282,367.3644 61.6407,365.7081 Q62.9688,364.0519 65.4688,364.0519 Q66.172,364.0519 66.8126,364.2081 Q67.4688,364.3644 68.0313,364.6613 L68.0313,367.38 Q67.4063,366.8019 66.8126,366.5363 Q66.2188,366.255 65.5938,366.255 Q64.2501,366.255 63.5626,367.3331 Q62.8751,368.3956 62.8751,370.4894 Q62.8751,372.5831 63.5626,373.6613 Q64.2501,374.7238 65.5938,374.7238 Q66.2188,374.7238 66.8126,374.4581 Q67.4063,374.1769 68.0313,373.5988 L68.0313,376.3175 Z " fill="#000000"/><text fill="#000000" font-family="sans-serif" font-size="14" lengthAdjust="spacing" textLength="119.7246" x="85.2076" y="375.5236">SupervisorConfig</text><line style="stroke:#181818;stroke-width:0.5;" x1="23.41" x2="234.5848" y1="386.6769" y2="386.6769"/><text fill="#000000" font-family="sans-serif" font-size="14" lengthAdjust="spacing" textLength="110.1543" x="28.41" y="403.672">AgentID : string</text><text fill="#000000" font-family="sans-serif" font-size="14" lengthAdjust="spacing" textLength="84.6016" x="28.41" y="419.9689">Role : string</text><text fill="#000000" font-family="sans-serif" font-size="14" lengthAdjust="spacing" textLength="134.6064" x="28.41" y="436.2657">ProjectRoot : string</text><text fill="#000000" font-family="sans-serif" font-size="14" lengthAdjust="spacing" textLength="122.2471" x="28.41" y="452.5626">StatePath : string</text><text fill="#000000" font-family="sans-serif" font-size="14" lengthAdjust="spacing" textLength="110.4414" x="28.41" y="468.8595">LogPath : string</text><text fill="#000000" font-family="sans-serif" font-size="14" lengthAdjust="spacing" textLength="115.6094" x="28.41" y="485.1564">SpecsDir : string</text><text fill="#000000" font-family="sans-serif" font-size="14" lengthAdjust="spacing" textLength="116.8125" x="28.41" y="501.4532">CLIName : string</text><text fill="#000000" font-family="sans-serif" font-size="14" lengthAdjust="spacing" textLength="118.9385" x="28.41" y="517.7501">Interactive : bool</text><text fill="#000000" font-family="sans-serif" font-size="14" lengthAdjust="spacing" textLength="125.0771" x="28.41" y="534.047">InitialTask : string</text><text fill="#000000" font-family="sans-serif" font-size="14" lengthAdjust="spacing" textLength="159.5713" x="28.41" y="550.3439">Executor : CLIExecutor</text><text fill="#000000" font-family="sans-serif" font-size="14" lengthAdjust="spacing" textLength="201.1748" x="28.41" y="566.6407">ExecutionTimeout : Duration</text><line style="stroke:#181818;stroke-width:0.5;" x1="23.41" x2="234.5848" y1="573.9425" y2="573.9425"/></g><!--class CLIExecutor--><g class="entity" data-qualified-name="Supervisor .internal.agent..CLIExecutor" data-source-line="18" id="ent0004"><rect fill="#F1F1F1" height="80.5938" rx="2.5" ry="2.5" style="stroke:#181818;stroke-width:0.5;" width="481.1504" x="22.42" y="683.3869"/><ellipse cx="216.8306" cy="699.3869" fill="#B4A7E5" rx="11" ry="11" style="stroke:#181818;stroke-width:1;"/><path d="M212.7525,695.1525 L212.7525,692.9963 L220.1431,692.9963 L220.1431,695.1525 L217.6744,695.1525 L217.6744,703.2306 L220.1431,703.2306 L220.1431,705.3869 L212.7525,705.3869 L212.7525,703.2306 L215.2213,703.2306 L215.2213,695.1525 L212.7525,695.1525 Z " fill="#000000"/><text fill="#000000" font-family="sans-serif" font-size="14" font-style="italic" lengthAdjust="spacing" textLength="83.8291" x="237.3306" y="704.2336">CLIExecutor</text><line style="stroke:#181818;stroke-width:0.5;" x1="23.42" x2="502.5704" y1="715.3869" y2="715.3869"/><line style="stroke:#181818;stroke-width:0.5;" x1="23.42" x2="502.5704" y1="723.3869" y2="723.3869"/><g data-visibility-modifier="PUBLIC_METHOD"><ellipse cx="33.42" cy="737.0353" fill="#84BE84" rx="3" ry="3" style="stroke:#038048;stroke-width:1;"/></g><text fill="#000000" font-family="sans-serif" font-size="14" lengthAdjust="spacing" textLength="455.1504" x="42.42" y="740.382">Execute(ctx, cliName, agentID, prompt, projectRoot) : (int, error)</text><g data-visibility-modifier="PUBLIC_METHOD"><ellipse cx="33.42" cy="753.3322" fill="#84BE84" rx="3" ry="3" style="stroke:#038048;stroke-width:1;"/></g><text fill="#000000" font-family="sans-serif" font-size="14" lengthAdjust="spacing" textLength="406.1914" x="42.42" y="756.6789">ExecuteInteractive(ctx, cliName, projectRoot) : (int, error)</text></g><!--class DefaultCLIExecutor--><g class="entity" data-qualified-name="Supervisor .internal.agent..DefaultCLIExecutor" data-source-line="23" id="ent0005"><rect fill="#F1F1F1" height="96.8906" rx="2.5" ry="2.5" style="stroke:#181818;stroke-width:0.5;" width="268.2451" x="128.88" y="835.1269"/><ellipse cx="191.2613" cy="851.1269" fill="#ADD1B2" rx="11" ry="11" style="stroke:#181818;stroke-width:1;"/><path d="M194.2301,856.7675 Q193.652,857.0644 193.0113,857.205 Q192.3707,857.3613 191.6676,857.3613 Q189.1676,857.3613 187.8395,855.7206 Q186.527,854.0644 186.527,850.9394 Q186.527,847.8144 187.8395,846.1581 Q189.1676,844.5019 191.6676,844.5019 Q192.3707,844.5019 193.0113,844.6581 Q193.6676,844.8144 194.2301,845.1113 L194.2301,847.83 Q193.6051,847.2519 193.0113,846.9863 Q192.4176,846.705 191.7926,846.705 Q190.4488,846.705 189.7613,847.7831 Q189.0738,848.8456 189.0738,850.9394 Q189.0738,853.0331 189.7613,854.1113 Q190.4488,855.1738 191.7926,855.1738 Q192.4176,855.1738 193.0113,854.9081 Q193.6051,854.6269 194.2301,854.0488 L194.2301,856.7675 Z " fill="#000000"/><text fill="#000000" font-family="sans-serif" font-size="14" lengthAdjust="spacing" textLength="134.9824" x="211.7613" y="855.9736">DefaultCLIExecutor</text><line style="stroke:#181818;stroke-width:0.5;" x1="129.88" x2="396.1251" y1="867.1269" y2="867.1269"/><g data-visibility-modifier="PRIVATE_FIELD"><rect fill="none" height="6" style="stroke:#C82930;stroke-width:1;" width="6" x="136.88" y="877.7753"/></g><text fill="#000000" font-family="sans-serif" font-size="14" lengthAdjust="spacing" textLength="127.7021" x="148.88" y="884.122">outputsDir : string</text><line style="stroke:#181818;stroke-width:0.5;" x1="129.88" x2="396.1251" y1="891.4238" y2="891.4238"/><g data-visibility-modifier="PUBLIC_METHOD"><ellipse cx="139.88" cy="905.0722" fill="#84BE84" rx="3" ry="3" style="stroke:#038048;stroke-width:1;"/></g><text fill="#000000" font-family="sans-serif" font-size="14" lengthAdjust="spacing" textLength="166.8311" x="148.88" y="908.4189">Execute(...) : (int, error)</text><g data-visibility-modifier="PUBLIC_METHOD"><ellipse cx="139.88" cy="921.3691" fill="#84BE84" rx="3" ry="3" style="stroke:#038048;stroke-width:1;"/></g><text fill="#000000" font-family="sans-serif" font-size="14" lengthAdjust="spacing" textLength="242.2451" x="148.88" y="924.7157">ExecuteInteractive(...) : (int, error)</text></g><!--class exit42RestartTracker--><g class="entity" data-qualified-name="Supervisor .internal.agent..exit42RestartTracker" data-source-line="30" id="ent0006"><rect fill="#F1F1F1" height="80.5938" rx="2.5" ry="2.5" style="stroke:#181818;stroke-width:0.5;" width="386.6504" x="270.67" y="428.0069"/><ellipse cx="385.6949" cy="444.0069" fill="#ADD1B2" rx="11" ry="11" style="stroke:#181818;stroke-width:1;"/><path d="M388.6637,449.6475 Q388.0855,449.9444 387.4449,450.085 Q386.8043,450.2413 386.1012,450.2413 Q383.6012,450.2413 382.273,448.6006 Q380.9605,446.9444 380.9605,443.8194 Q380.9605,440.6944 382.273,439.0381 Q383.6012,437.3819 386.1012,437.3819 Q386.8043,437.3819 387.4449,437.5381 Q388.1012,437.6944 388.6637,437.9913 L388.6637,440.71 Q388.0387,440.1319 387.4449,439.8663 Q386.8512,439.585 386.2262,439.585 Q384.8824,439.585 384.1949,440.6631 Q383.5074,441.7256 383.5074,443.8194 Q383.5074,445.9131 384.1949,446.9913 Q384.8824,448.0538 386.2262,448.0538 Q386.8512,448.0538 387.4449,447.7881 Q388.0387,447.5069 388.6637,446.9288 L388.6637,449.6475 Z " fill="#000000"/><text fill="#000000" font-family="sans-serif" font-size="14" lengthAdjust="spacing" textLength="148.1006" x="406.1949" y="448.8536">exit42RestartTracker</text><line style="stroke:#181818;stroke-width:0.5;" x1="271.67" x2="656.3204" y1="460.0069" y2="460.0069"/><g data-visibility-modifier="PRIVATE_FIELD"><rect fill="none" height="6" style="stroke:#C82930;stroke-width:1;" width="6" x="278.67" y="470.6553"/></g><text fill="#000000" font-family="sans-serif" font-size="14" lengthAdjust="spacing" textLength="271.1816" x="290.67" y="477.002">byKey : map[string]exit42RestartState</text><line style="stroke:#181818;stroke-width:0.5;" x1="271.67" x2="656.3204" y1="484.3038" y2="484.3038"/><g data-visibility-modifier="PUBLIC_METHOD"><ellipse cx="281.67" cy="497.9522" fill="#84BE84" rx="3" ry="3" style="stroke:#038048;stroke-width:1;"/></g><text fill="#000000" font-family="sans-serif" font-size="14" lengthAdjust="spacing" textLength="360.6504" x="290.67" y="501.2989">Handle(bb, role, taskID, agentID) : (outcome, error)</text></g><!--class RunSupervisor--><g class="entity" data-qualified-name="Supervisor .internal.agent..RunSupervisor" data-source-line="36" id="ent0007"><rect fill="#F1F1F1" height="162.0781" rx="2.5" ry="2.5" style="stroke:#181818;stroke-width:0.5;" width="277.0137" x="379.49" y="78.2969"/><ellipse cx="394.49" cy="94.2969" fill="#ADD1B2" rx="11" ry="11" style="stroke:#181818;stroke-width:1;"/><path d="M397.4588,99.9375 Q396.8806,100.2344 396.24,100.375 Q395.5994,100.5313 394.8963,100.5313 Q392.3963,100.5313 391.0681,98.8906 Q389.7556,97.2344 389.7556,94.1094 Q389.7556,90.9844 391.0681,89.3281 Q392.3963,87.6719 394.8963,87.6719 Q395.5994,87.6719 396.24,87.8281 Q396.8963,87.9844 397.4588,88.2813 L397.4588,91 Q396.8338,90.4219 396.24,90.1563 Q395.6463,89.875 395.0213,89.875 Q393.6775,89.875 392.99,90.9531 Q392.3025,92.0156 392.3025,94.1094 Q392.3025,96.2031 392.99,97.2813 Q393.6775,98.3438 395.0213,98.3438 Q395.6463,98.3438 396.24,98.0781 Q396.8338,97.7969 397.4588,97.2188 L397.4588,99.9375 Z " fill="#000000"/><text fill="#000000" font-family="sans-serif" font-size="14" lengthAdjust="spacing" textLength="245.0137" x="408.49" y="99.1436">RunSupervisor(ctx, config) &#171;entry&#187;</text><line style="stroke:#181818;stroke-width:0.5;" x1="380.49" x2="655.5037" y1="110.2969" y2="110.2969"/><text fill="#000000" font-family="sans-serif" font-size="14" lengthAdjust="spacing" textLength="120.9688" x="385.49" y="127.292">1. Register agent</text><text fill="#000000" font-family="sans-serif" font-size="14" lengthAdjust="spacing" textLength="125.3369" x="385.49" y="143.5889">2. Start heartbeat</text><text fill="#000000" font-family="sans-serif" font-size="14" lengthAdjust="spacing" textLength="91.499" x="385.49" y="159.8857">3. Claim task</text><text fill="#000000" font-family="sans-serif" font-size="14" lengthAdjust="spacing" textLength="108.623" x="385.49" y="176.1826">4. Build prompt</text><text fill="#000000" font-family="sans-serif" font-size="14" lengthAdjust="spacing" textLength="90.6377" x="385.49" y="192.4795">5. Spawn CLI</text><text fill="#000000" font-family="sans-serif" font-size="14" lengthAdjust="spacing" textLength="136.1172" x="385.49" y="208.7764">6. Handle exit code</text><text fill="#000000" font-family="sans-serif" font-size="14" lengthAdjust="spacing" textLength="51.625" x="385.49" y="225.0732">7. Loop</text><line style="stroke:#181818;stroke-width:0.5;" x1="380.49" x2="655.5037" y1="232.375" y2="232.375"/></g><!--class PromptBuilder--><g class="entity" data-qualified-name="Prompt Builder .internal.prompts..PromptBuilder" data-source-line="48" id="ent0009"><rect fill="#F1F1F1" height="178.375" rx="2.5" ry="2.5" style="stroke:#181818;stroke-width:0.5;" width="375.2754" x="838.36" y="379.1169"/><ellipse cx="971.6027" cy="395.1169" fill="#ADD1B2" rx="11" ry="11" style="stroke:#181818;stroke-width:1;"/><path d="M974.5714,400.7575 Q973.9933,401.0544 973.3527,401.195 Q972.7121,401.3513 972.0089,401.3513 Q969.5089,401.3513 968.1808,399.7106 Q966.8683,398.0544 966.8683,394.9294 Q966.8683,391.8044 968.1808,390.1481 Q969.5089,388.4919 972.0089,388.4919 Q972.7121,388.4919 973.3527,388.6481 Q974.0089,388.8044 974.5714,389.1013 L974.5714,391.82 Q973.9464,391.2419 973.3527,390.9763 Q972.7589,390.695 972.1339,390.695 Q970.7902,390.695 970.1027,391.7731 Q969.4152,392.8356 969.4152,394.9294 Q969.4152,397.0231 970.1027,398.1013 Q970.7902,399.1638 972.1339,399.1638 Q972.7589,399.1638 973.3527,398.8981 Q973.9464,398.6169 974.5714,398.0388 L974.5714,400.7575 Z " fill="#000000"/><text fill="#000000" font-family="sans-serif" font-size="14" lengthAdjust="spacing" textLength="100.29" x="992.1027" y="399.9636">PromptBuilder</text><line style="stroke:#181818;stroke-width:0.5;" x1="839.36" x2="1212.6354" y1="411.1169" y2="411.1169"/><g data-visibility-modifier="PRIVATE_FIELD"><rect fill="none" height="6" style="stroke:#C82930;stroke-width:1;" width="6" x="846.36" y="421.7653"/></g><text fill="#000000" font-family="sans-serif" font-size="14" lengthAdjust="spacing" textLength="116.9424" x="858.36" y="428.112">bb : *Blackboard</text><g data-visibility-modifier="PRIVATE_FIELD"><rect fill="none" height="6" style="stroke:#C82930;stroke-width:1;" width="6" x="846.36" y="438.0622"/></g><text fill="#000000" font-family="sans-serif" font-size="14" lengthAdjust="spacing" textLength="114.0166" x="858.36" y="444.4089">specsDir : string</text><g data-visibility-modifier="PRIVATE_FIELD"><rect fill="none" height="6" style="stroke:#C82930;stroke-width:1;" width="6" x="846.36" y="454.3591"/></g><text fill="#000000" font-family="sans-serif" font-size="14" lengthAdjust="spacing" textLength="158.6689" x="858.36" y="460.7057">embedded : embed.FS</text><line style="stroke:#181818;stroke-width:0.5;" x1="839.36" x2="1212.6354" y1="468.0075" y2="468.0075"/><g data-visibility-modifier="PUBLIC_METHOD"><ellipse cx="849.36" cy="481.6559" fill="#84BE84" rx="3" ry="3" style="stroke:#038048;stroke-width:1;"/></g><text fill="#000000" font-family="sans-serif" font-size="14" lengthAdjust="spacing" textLength="349.2754" x="858.36" y="485.0026">BuildPrompt(role, taskID, agentID) : (string, error)</text><g data-visibility-modifier="PRIVATE_METHOD"><rect fill="#F24D5C" height="6" style="stroke:#C82930;stroke-width:1;" width="6" x="846.36" y="494.9528"/></g><text fill="#000000" font-family="sans-serif" font-size="14" lengthAdjust="spacing" textLength="181.6992" x="858.36" y="501.2995">loadContract(role) : string</text><g data-visibility-modifier="PRIVATE_METHOD"><rect fill="#F24D5C" height="6" style="stroke:#C82930;stroke-width:1;" width="6" x="846.36" y="511.2497"/></g><text fill="#000000" font-family="sans-serif" font-size="14" lengthAdjust="spacing" textLength="157.4316" x="858.36" y="517.5964">loadSkills(role) : string</text><g data-visibility-modifier="PRIVATE_METHOD"><rect fill="#F24D5C" height="6" style="stroke:#C82930;stroke-width:1;" width="6" x="846.36" y="527.5466"/></g><text fill="#000000" font-family="sans-serif" font-size="14" lengthAdjust="spacing" textLength="226.6523" x="858.36" y="533.8932">loadTaskContext(taskID) : string</text><g data-visibility-modifier="PRIVATE_METHOD"><rect fill="#F24D5C" height="6" style="stroke:#C82930;stroke-width:1;" width="6" x="846.36" y="543.8434"/></g><text fill="#000000" font-family="sans-serif" font-size="14" lengthAdjust="spacing" textLength="191.7891" x="858.36" y="550.1901">loadSpecs(specRef) : string</text></g><!--class Git--><g class="entity" data-qualified-name="Git Operations .internal.git..Git" data-source-line="62" id="ent0011"><rect fill="#F1F1F1" height="259.8594" rx="2.5" ry="2.5" style="stroke:#181818;stroke-width:0.5;" width="478.8877" x="1269.56" y="338.3769"/><ellipse cx="1494.6401" cy="354.3769" fill="#ADD1B2" rx="11" ry="11" style="stroke:#181818;stroke-width:1;"/><path d="M1497.6088,360.0175 Q1497.0307,360.3144 1496.3901,360.455 Q1495.7495,360.6113 1495.0463,360.6113 Q1492.5463,360.6113 1491.2182,358.9706 Q1489.9057,357.3144 1489.9057,354.1894 Q1489.9057,351.0644 1491.2182,349.4081 Q1492.5463,347.7519 1495.0463,347.7519 Q1495.7495,347.7519 1496.3901,347.9081 Q1497.0463,348.0644 1497.6088,348.3613 L1497.6088,351.08 Q1496.9838,350.5019 1496.3901,350.2363 Q1495.7963,349.955 1495.1713,349.955 Q1493.8276,349.955 1493.1401,351.0331 Q1492.4526,352.0956 1492.4526,354.1894 Q1492.4526,356.2831 1493.1401,357.3613 Q1493.8276,358.4238 1495.1713,358.4238 Q1495.7963,358.4238 1496.3901,358.1581 Q1496.9838,357.8769 1497.6088,357.2988 L1497.6088,360.0175 Z " fill="#000000"/><text fill="#000000" font-family="sans-serif" font-size="14" lengthAdjust="spacing" textLength="20.2275" x="1515.1401" y="359.2236">Git</text><line style="stroke:#181818;stroke-width:0.5;" x1="1270.56" x2="1747.4477" y1="370.3769" y2="370.3769"/><g data-visibility-modifier="PRIVATE_FIELD"><rect fill="none" height="6" style="stroke:#C82930;stroke-width:1;" width="6" x="1277.56" y="381.0253"/></g><text fill="#000000" font-family="sans-serif" font-size="14" lengthAdjust="spacing" textLength="135.0508" x="1289.56" y="387.372">projectRoot : string</text><line style="stroke:#181818;stroke-width:0.5;" x1="1270.56" x2="1747.4477" y1="394.6738" y2="394.6738"/><g data-visibility-modifier="PUBLIC_METHOD"><ellipse cx="1280.56" cy="408.3222" fill="#84BE84" rx="3" ry="3" style="stroke:#038048;stroke-width:1;"/></g><text fill="#000000" font-family="sans-serif" font-size="14" lengthAdjust="spacing" textLength="414.2988" x="1289.56" y="411.6689">CreateWorktree(taskID, fromBranch) : (baseCommit, error)</text><g data-visibility-modifier="PUBLIC_METHOD"><ellipse cx="1280.56" cy="424.6191" fill="#84BE84" rx="3" ry="3" style="stroke:#038048;stroke-width:1;"/></g><text fill="#000000" font-family="sans-serif" font-size="14" lengthAdjust="spacing" textLength="452.8877" x="1289.56" y="427.9657">CreateWorktreeFresh(taskID, fromBranch) : (baseCommit, error)</text><g data-visibility-modifier="PUBLIC_METHOD"><ellipse cx="1280.56" cy="440.9159" fill="#84BE84" rx="3" ry="3" style="stroke:#038048;stroke-width:1;"/></g><text fill="#000000" font-family="sans-serif" font-size="14" lengthAdjust="spacing" textLength="271.3799" x="1289.56" y="444.2626">AttachWorktree(taskID, branch) : error</text><g data-visibility-modifier="PUBLIC_METHOD"><ellipse cx="1280.56" cy="457.2128" fill="#84BE84" rx="3" ry="3" style="stroke:#038048;stroke-width:1;"/></g><text fill="#000000" font-family="sans-serif" font-size="14" lengthAdjust="spacing" textLength="225.5518" x="1289.56" y="460.5595">RemoveWorktree(taskID) : error</text><g data-visibility-modifier="PUBLIC_METHOD"><ellipse cx="1280.56" cy="473.5097" fill="#84BE84" rx="3" ry="3" style="stroke:#038048;stroke-width:1;"/></g><text fill="#000000" font-family="sans-serif" font-size="14" lengthAdjust="spacing" textLength="250.9883" x="1289.56" y="476.8564">ListWorktrees() : ([]Worktree, error)</text><g data-visibility-modifier="PUBLIC_METHOD"><ellipse cx="1280.56" cy="489.8066" fill="#84BE84" rx="3" ry="3" style="stroke:#038048;stroke-width:1;"/></g><text fill="#000000" font-family="sans-serif" font-size="14" lengthAdjust="spacing" textLength="246.4697" x="1289.56" y="493.1532">GetCurrentBranch() : (string, error)</text><g data-visibility-modifier="PUBLIC_METHOD"><ellipse cx="1280.56" cy="506.1034" fill="#84BE84" rx="3" ry="3" style="stroke:#038048;stroke-width:1;"/></g><text fill="#000000" font-family="sans-serif" font-size="14" lengthAdjust="spacing" textLength="247.2354" x="1289.56" y="509.4501">GetCommitSHA(ref) : (string, error)</text><g data-visibility-modifier="PUBLIC_METHOD"><ellipse cx="1280.56" cy="522.4003" fill="#84BE84" rx="3" ry="3" style="stroke:#038048;stroke-width:1;"/></g><text fill="#000000" font-family="sans-serif" font-size="14" lengthAdjust="spacing" textLength="247.8643" x="1289.56" y="525.747">BranchExists(branch) : (bool, error)</text><g data-visibility-modifier="PUBLIC_METHOD"><ellipse cx="1280.56" cy="538.6972" fill="#84BE84" rx="3" ry="3" style="stroke:#038048;stroke-width:1;"/></g><text fill="#000000" font-family="sans-serif" font-size="14" lengthAdjust="spacing" textLength="278.3799" x="1289.56" y="542.0439">CalculateDrift(base, target) : (int, error)</text><g data-visibility-modifier="PUBLIC_METHOD"><ellipse cx="1280.56" cy="554.9941" fill="#84BE84" rx="3" ry="3" style="stroke:#038048;stroke-width:1;"/></g><text fill="#000000" font-family="sans-serif" font-size="14" lengthAdjust="spacing" textLength="230.1865" x="1289.56" y="558.3407">GetWorktreePath(taskID) : string</text><g data-visibility-modifier="PRIVATE_METHOD"><rect fill="#F24D5C" height="6" style="stroke:#C82930;stroke-width:1;" width="6" x="1277.56" y="568.2909"/></g><text fill="#000000" font-family="sans-serif" font-size="14" lengthAdjust="spacing" textLength="196.0752" x="1289.56" y="574.6376">exec(args...) : (string, error)</text><g data-visibility-modifier="PRIVATE_METHOD"><rect fill="#F24D5C" height="6" style="stroke:#C82930;stroke-width:1;" width="6" x="1277.56" y="584.5878"/></g><text fill="#000000" font-family="sans-serif" font-size="14" lengthAdjust="spacing" textLength="256.9355" x="1289.56" y="590.9345">execInDir(dir, args...) : (string, error)</text></g><!--class Worktree--><g class="entity" data-qualified-name="Git Operations .internal.git..Worktree" data-source-line="79" id="ent0012"><rect fill="#F1F1F1" height="96.8906" rx="2.5" ry="2.5" style="stroke:#181818;stroke-width:0.5;" width="120.8008" x="1269.6" y="675.2369"/><ellipse cx="1295.4259" cy="691.2369" fill="#ADD1B2" rx="11" ry="11" style="stroke:#181818;stroke-width:1;"/><path d="M1298.3947,696.8775 Q1297.8166,697.1744 1297.1759,697.315 Q1296.5353,697.4713 1295.8322,697.4713 Q1293.3322,697.4713 1292.0041,695.8306 Q1290.6916,694.1744 1290.6916,691.0494 Q1290.6916,687.9244 1292.0041,686.2681 Q1293.3322,684.6119 1295.8322,684.6119 Q1296.5353,684.6119 1297.1759,684.7681 Q1297.8322,684.9244 1298.3947,685.2213 L1298.3947,687.94 Q1297.7697,687.3619 1297.1759,687.0963 Q1296.5822,686.815 1295.9572,686.815 Q1294.6134,686.815 1293.9259,687.8931 Q1293.2384,688.9556 1293.2384,691.0494 Q1293.2384,693.1431 1293.9259,694.2213 Q1294.6134,695.2838 1295.9572,695.2838 Q1296.5822,695.2838 1297.1759,695.0181 Q1297.7697,694.7369 1298.3947,694.1588 L1298.3947,696.8775 Z " fill="#000000"/><text fill="#000000" font-family="sans-serif" font-size="14" lengthAdjust="spacing" textLength="64.7432" x="1311.8317" y="696.0836">Worktree</text><line style="stroke:#181818;stroke-width:0.5;" x1="1270.6" x2="1389.4008" y1="707.2369" y2="707.2369"/><text fill="#000000" font-family="sans-serif" font-size="14" lengthAdjust="spacing" textLength="85.1895" x="1275.6" y="724.232">Path : string</text><text fill="#000000" font-family="sans-serif" font-size="14" lengthAdjust="spacing" textLength="108.8008" x="1275.6" y="740.5289">Commit : string</text><text fill="#000000" font-family="sans-serif" font-size="14" lengthAdjust="spacing" textLength="103.1885" x="1275.6" y="756.8257">Branch : string</text><line style="stroke:#181818;stroke-width:0.5;" x1="1270.6" x2="1389.4008" y1="764.1275" y2="764.1275"/></g><!--class RefConflictError--><g class="entity" data-qualified-name="Git Operations .internal.git..RefConflictError" data-source-line="85" id="ent0013"><rect fill="#F1F1F1" height="96.8906" rx="2.5" ry="2.5" style="stroke:#181818;stroke-width:0.5;" width="143.0566" x="1425.47" y="675.2369"/><ellipse cx="1440.47" cy="691.2369" fill="#ADD1B2" rx="11" ry="11" style="stroke:#181818;stroke-width:1;"/><path d="M1443.4388,696.8775 Q1442.8606,697.1744 1442.22,697.315 Q1441.5794,697.4713 1440.8763,697.4713 Q1438.3763,697.4713 1437.0481,695.8306 Q1435.7356,694.1744 1435.7356,691.0494 Q1435.7356,687.9244 1437.0481,686.2681 Q1438.3763,684.6119 1440.8763,684.6119 Q1441.5794,684.6119 1442.22,684.7681 Q1442.8763,684.9244 1443.4388,685.2213 L1443.4388,687.94 Q1442.8138,687.3619 1442.22,687.0963 Q1441.6263,686.815 1441.0013,686.815 Q1439.6575,686.815 1438.97,687.8931 Q1438.2825,688.9556 1438.2825,691.0494 Q1438.2825,693.1431 1438.97,694.2213 Q1439.6575,695.2838 1441.0013,695.2838 Q1441.6263,695.2838 1442.22,695.0181 Q1442.8138,694.7369 1443.4388,694.1588 L1443.4388,696.8775 Z " fill="#000000"/><text fill="#000000" font-family="sans-serif" font-size="14" lengthAdjust="spacing" textLength="111.0566" x="1454.47" y="696.0836">RefConflictError</text><line style="stroke:#181818;stroke-width:0.5;" x1="1426.47" x2="1567.5266" y1="707.2369" y2="707.2369"/><text fill="#000000" font-family="sans-serif" font-size="14" lengthAdjust="spacing" textLength="77.0752" x="1431.47" y="724.232">Ref : string</text><text fill="#000000" font-family="sans-serif" font-size="14" lengthAdjust="spacing" textLength="119.123" x="1431.47" y="740.5289">Expected : string</text><text fill="#000000" font-family="sans-serif" font-size="14" lengthAdjust="spacing" textLength="97.9111" x="1431.47" y="756.8257">Actual : string</text><line style="stroke:#181818;stroke-width:0.5;" x1="1426.47" x2="1567.5266" y1="764.1275" y2="764.1275"/></g><!--class RebaseConflictError--><g class="entity" data-qualified-name="Git Operations .internal.git..RebaseConflictError" data-source-line="91" id="ent0014"><rect fill="#F1F1F1" height="64.2969" rx="2.5" ry="2.5" style="stroke:#181818;stroke-width:0.5;" width="171.501" x="1603.25" y="691.5369"/><ellipse cx="1618.25" cy="707.5369" fill="#ADD1B2" rx="11" ry="11" style="stroke:#181818;stroke-width:1;"/><path d="M1621.2188,713.1775 Q1620.6406,713.4744 1620,713.615 Q1619.3594,713.7713 1618.6563,713.7713 Q1616.1563,713.7713 1614.8281,712.1306 Q1613.5156,710.4744 1613.5156,707.3494 Q1613.5156,704.2244 1614.8281,702.5681 Q1616.1563,700.9119 1618.6563,700.9119 Q1619.3594,700.9119 1620,701.0681 Q1620.6563,701.2244 1621.2188,701.5213 L1621.2188,704.24 Q1620.5938,703.6619 1620,703.3963 Q1619.4063,703.115 1618.7813,703.115 Q1617.4375,703.115 1616.75,704.1931 Q1616.0625,705.2556 1616.0625,707.3494 Q1616.0625,709.4431 1616.75,710.5213 Q1617.4375,711.5838 1618.7813,711.5838 Q1619.4063,711.5838 1620,711.3181 Q1620.5938,711.0369 1621.2188,710.4588 L1621.2188,713.1775 Z " fill="#000000"/><text fill="#000000" font-family="sans-serif" font-size="14" lengthAdjust="spacing" textLength="139.501" x="1632.25" y="712.3836">RebaseConflictError</text><line style="stroke:#181818;stroke-width:0.5;" x1="1604.25" x2="1773.751" y1="723.5369" y2="723.5369"/><text fill="#000000" font-family="sans-serif" font-size="14" lengthAdjust="spacing" textLength="102.4365" x="1609.25" y="740.532">Output : string</text><line style="stroke:#181818;stroke-width:0.5;" x1="1604.25" x2="1773.751" y1="747.8338" y2="747.8338"/></g><!--class Resolver--><g class="entity" data-qualified-name="Pipeline .internal.pipeline..Resolver" data-source-line="97" id="ent0016"><rect fill="#F1F1F1" height="194.6719" rx="2.5" ry="2.5" style="stroke:#181818;stroke-width:0.5;" width="352.71" x="1830.65" y="370.9669"/><ellipse cx="1972.3829" cy="386.9669" fill="#ADD1B2" rx="11" ry="11" style="stroke:#181818;stroke-width:1;"/><path d="M1975.3517,392.6075 Q1974.7735,392.9044 1974.1329,393.045 Q1973.4923,393.2013 1972.7892,393.2013 Q1970.2892,393.2013 1968.961,391.5606 Q1967.6485,389.9044 1967.6485,386.7794 Q1967.6485,383.6544 1968.961,381.9981 Q1970.2892,380.3419 1972.7892,380.3419 Q1973.4923,380.3419 1974.1329,380.4981 Q1974.7892,380.6544 1975.3517,380.9513 L1975.3517,383.67 Q1974.7267,383.0919 1974.1329,382.8263 Q1973.5392,382.545 1972.9142,382.545 Q1971.5704,382.545 1970.8829,383.6231 Q1970.1954,384.6856 1970.1954,386.7794 Q1970.1954,388.8731 1970.8829,389.9513 Q1971.5704,391.0138 1972.9142,391.0138 Q1973.5392,391.0138 1974.1329,390.7481 Q1974.7267,390.4669 1975.3517,389.8888 L1975.3517,392.6075 Z " fill="#000000"/><text fill="#000000" font-family="sans-serif" font-size="14" lengthAdjust="spacing" textLength="60.7441" x="1992.8829" y="391.8136">Resolver</text><line style="stroke:#181818;stroke-width:0.5;" x1="1831.65" x2="2182.36" y1="402.9669" y2="402.9669"/><g data-visibility-modifier="PRIVATE_FIELD"><rect fill="none" height="6" style="stroke:#C82930;stroke-width:1;" width="6" x="1838.65" y="413.6153"/></g><text fill="#000000" font-family="sans-serif" font-size="14" lengthAdjust="spacing" textLength="142.1465" x="1850.65" y="419.962">cfg : *PipelineConfig</text><line style="stroke:#181818;stroke-width:0.5;" x1="1831.65" x2="2182.36" y1="427.2638" y2="427.2638"/><g data-visibility-modifier="PUBLIC_METHOD"><ellipse cx="1841.65" cy="440.9122" fill="#84BE84" rx="3" ry="3" style="stroke:#038048;stroke-width:1;"/></g><text fill="#000000" font-family="sans-serif" font-size="14" lengthAdjust="spacing" textLength="237.002" x="1850.65" y="444.2589">DoerRole(rolePair) : (string, error)</text><g data-visibility-modifier="PUBLIC_METHOD"><ellipse cx="1841.65" cy="457.2091" fill="#84BE84" rx="3" ry="3" style="stroke:#038048;stroke-width:1;"/></g><text fill="#000000" font-family="sans-serif" font-size="14" lengthAdjust="spacing" textLength="268.2354" x="1850.65" y="460.5557">ReviewerRole(rolePair) : (string, error)</text><g data-visibility-modifier="PUBLIC_METHOD"><ellipse cx="1841.65" cy="473.5059" fill="#84BE84" rx="3" ry="3" style="stroke:#038048;stroke-width:1;"/></g><text fill="#000000" font-family="sans-serif" font-size="14" lengthAdjust="spacing" textLength="292.7969" x="1850.65" y="476.8526">InitialStatus(rolePair) : (TaskStatus, error)</text><g data-visibility-modifier="PUBLIC_METHOD"><ellipse cx="1841.65" cy="489.8028" fill="#84BE84" rx="3" ry="3" style="stroke:#038048;stroke-width:1;"/></g><text fill="#000000" font-family="sans-serif" font-size="14" lengthAdjust="spacing" textLength="323.5107" x="1850.65" y="493.1495">ExecutingStatus(rolePair) : (TaskStatus, error)</text><g data-visibility-modifier="PUBLIC_METHOD"><ellipse cx="1841.65" cy="506.0997" fill="#84BE84" rx="3" ry="3" style="stroke:#038048;stroke-width:1;"/></g><text fill="#000000" font-family="sans-serif" font-size="14" lengthAdjust="spacing" textLength="326.71" x="1850.65" y="509.4464">SubmittedStatus(rolePair) : (TaskStatus, error)</text><g data-visibility-modifier="PUBLIC_METHOD"><ellipse cx="1841.65" cy="522.3966" fill="#84BE84" rx="3" ry="3" style="stroke:#038048;stroke-width:1;"/></g><text fill="#000000" font-family="sans-serif" font-size="14" lengthAdjust="spacing" textLength="321.5146" x="1850.65" y="525.7432">ApprovedStatus(rolePair) : (TaskStatus, error)</text><g data-visibility-modifier="PUBLIC_METHOD"><ellipse cx="1841.65" cy="538.6934" fill="#84BE84" rx="3" ry="3" style="stroke:#038048;stroke-width:1;"/></g><text fill="#000000" font-family="sans-serif" font-size="14" lengthAdjust="spacing" textLength="266.0205" x="1850.65" y="542.0401">TransitionMap() : map[Status][]Status</text><g data-visibility-modifier="PUBLIC_METHOD"><ellipse cx="1841.65" cy="554.9903" fill="#84BE84" rx="3" ry="3" style="stroke:#038048;stroke-width:1;"/></g><text fill="#000000" font-family="sans-serif" font-size="14" lengthAdjust="spacing" textLength="260.5313" x="1850.65" y="558.337">SprintTerminalStates() : []TaskStatus</text></g><!--class PR--><g class="entity" data-qualified-name="Pipeline .internal.pipeline..PR" data-source-line="110" id="ent0017"><rect fill="#F1F1F1" height="48" rx="2.5" ry="2.5" style="stroke:#181818;stroke-width:0.5;" width="203.1787" x="1905.41" y="135.3369"/><ellipse cx="1920.41" cy="151.3369" fill="#B4A7E5" rx="11" ry="11" style="stroke:#181818;stroke-width:1;"/><path d="M1916.3319,147.1025 L1916.3319,144.9463 L1923.7225,144.9463 L1923.7225,147.1025 L1921.2538,147.1025 L1921.2538,155.1806 L1923.7225,155.1806 L1923.7225,157.3369 L1916.3319,157.3369 L1916.3319,155.1806 L1918.8006,155.1806 L1918.8006,147.1025 L1916.3319,147.1025 Z " fill="#000000"/><text fill="#000000" font-family="sans-serif" font-size="14" font-style="italic" lengthAdjust="spacing" textLength="171.1787" x="1934.41" y="156.1836">models.PipelineResolver</text><line style="stroke:#181818;stroke-width:0.5;" x1="1906.41" x2="2107.5887" y1="167.3369" y2="167.3369"/><line style="stroke:#181818;stroke-width:0.5;" x1="1906.41" x2="2107.5887" y1="175.3369" y2="175.3369"/></g><!--class Blackboard--><g class="entity" data-qualified-name="Blackboard" data-source-line="119" id="ent0024"><rect fill="#F1F1F1" height="48" rx="2.5" ry="2.5" style="stroke:#181818;stroke-width:0.5;" width="110.5518" x="692.72" y="444.3069"/><ellipse cx="707.72" cy="460.3069" fill="#ADD1B2" rx="11" ry="11" style="stroke:#181818;stroke-width:1;"/><path d="M710.6888,465.9475 Q710.1106,466.2444 709.47,466.385 Q708.8294,466.5413 708.1263,466.5413 Q705.6263,466.5413 704.2981,464.9006 Q702.9856,463.2444 702.9856,460.1194 Q702.9856,456.9944 704.2981,455.3381 Q705.6263,453.6819 708.1263,453.6819 Q708.8294,453.6819 709.47,453.8381 Q710.1263,453.9944 710.6888,454.2913 L710.6888,457.01 Q710.0638,456.4319 709.47,456.1663 Q708.8763,455.885 708.2513,455.885 Q706.9075,455.885 706.22,456.9631 Q705.5325,458.0256 705.5325,460.1194 Q705.5325,462.2131 706.22,463.2913 Q706.9075,464.3538 708.2513,464.3538 Q708.8763,464.3538 709.47,464.0881 Q710.0638,463.8069 710.6888,463.2288 L710.6888,465.9475 Z " fill="#000000"/><text fill="#000000" font-family="sans-serif" font-size="14" lengthAdjust="spacing" textLength="78.5518" x="721.72" y="465.1536">Blackboard</text><line style="stroke:#181818;stroke-width:0.5;" x1="693.72" x2="802.2718" y1="476.3069" y2="476.3069"/><line style="stroke:#181818;stroke-width:0.5;" x1="693.72" x2="802.2718" y1="484.3069" y2="484.3069"/></g><g class="entity" data-qualified-name="GMN30" data-source-line="128" id="ent0031"><path d="M691.9,124.0669 L691.9,155.3369 L656.81,159.3369 L691.9,163.3369 L691.9,194.5981 A0,0 0 0 0 691.9,194.5981 L980.0982,194.5981 A0,0 0 0 0 980.0982,194.5981 L980.0982,134.0669 L970.0982,124.0669 L691.9,124.0669 A0,0 0 0 0 691.9,124.0669" fill="#FEFFDD" style="stroke:#181818;stroke-width:0.5;"/><path d="M970.0982,124.0669 L970.0982,134.0669 L980.0982,134.0669 L970.0982,124.0669" fill="#FEFFDD" style="stroke:#181818;stroke-width:0.5;"/><text fill="#000000" font-family="sans-serif" font-size="13" lengthAdjust="spacing" textLength="71.2524" x="697.9" y="141.1338">Exit codes:</text><text fill="#000000" font-family="sans-serif" font-size="13" lengthAdjust="spacing" textLength="204.7246" x="697.9" y="156.2666">0 = normal exit &#8594; reset to IDLE</text><text fill="#000000" font-family="sans-serif" font-size="13" lengthAdjust="spacing" textLength="267.1982" x="697.9" y="171.3994">42 = restart requested &#8594; backoff + retry</text><text fill="#000000" font-family="sans-serif" font-size="13" lengthAdjust="spacing" textLength="177.1187" x="697.9" y="186.5322">other = error &#8594; log + reset</text></g><!--reverse link CLIExecutor to DefaultCLIExecutor--><g class="link" data-entity-1="ent0004" data-entity-2="ent0005" data-link-type="extension" data-source-line="113" id="lnk18"><path codeLine="113" d="M263,782.1169 C263,803.4869 263,812.0669 263,834.6269" fill="none" id="CLIExecutor-backto-DefaultCLIExecutor" style="stroke:#181818;stroke-width:1;stroke-dasharray:7,7;"/><polygon fill="none" points="263,764.1169,257,782.1169,269,782.1169,263,764.1169" style="stroke:#181818;stroke-width:1;"/></g><!--link SupervisorConfig to CLIExecutor--><g class="link" data-entity-1="ent0003" data-entity-2="ent0004" data-link-type="dependency" data-source-line="114" id="lnk19"><path codeLine="114" d="M188.75,582.2869 C207.8,618.3069 224.8456,650.5326 239.2156,677.7126" fill="none" id="SupervisorConfig-to-CLIExecutor" style="stroke:#181818;stroke-width:1;"/><polygon fill="#181818" points="242.02,683.0169,241.3496,673.1909,239.683,678.5966,234.2773,676.93,242.02,683.0169" style="stroke:#181818;stroke-width:1;"/></g><!--link RunSupervisor to SupervisorConfig--><g class="link" data-entity-1="ent0007" data-entity-2="ent0003" data-link-type="dependency" data-source-line="115" id="lnk20"><path codeLine="115" d="M379.25,215.6769 C336.1,236.7669 290.15,263.5369 253,295.3769 C233.16,312.3769 218.4352,328.4111 202.2352,349.5911" fill="none" id="RunSupervisor-to-SupervisorConfig" style="stroke:#181818;stroke-width:1;"/><polygon fill="#181818" points="198.59,354.3569,207.235,349.6384,201.6277,350.3854,200.8806,344.7781,198.59,354.3569" style="stroke:#181818;stroke-width:1;"/><text fill="#000000" font-family="sans-serif" font-size="13" lengthAdjust="spacing" textLength="29.7832" x="286" y="283.4438">uses</text></g><!--link RunSupervisor to PromptBuilder--><g class="link" data-entity-1="ent0007" data-entity-2="ent0009" data-link-type="dependency" data-source-line="116" id="lnk21"><path codeLine="116" d="M656.64,232.5669 C662.48,235.2569 668.28,237.8769 674,240.3769 C737.91,268.3369 760.9,259.9569 821,295.3769 C860.52,318.6669 895.5164,345.6367 929.1764,374.8167" fill="none" id="RunSupervisor-to-PromptBuilder" style="stroke:#181818;stroke-width:1;"/><polygon fill="#181818" points="933.71,378.7469,929.5297,369.8292,929.932,375.4717,924.2895,375.874,933.71,378.7469" style="stroke:#181818;stroke-width:1;"/><text fill="#000000" font-family="sans-serif" font-size="13" lengthAdjust="spacing" textLength="90.4351" x="805" y="283.4438">builds prompt</text></g><!--link RunSupervisor to exit42RestartTracker--><g class="link" data-entity-1="ent0007" data-entity-2="ent0006" data-link-type="dependency" data-source-line="117" id="lnk22"><path codeLine="117" d="M503.88,240.5869 C493.29,300.8069 480.2803,374.7677 471.9903,421.8577" fill="none" id="RunSupervisor-to-exit42RestartTracker" style="stroke:#181818;stroke-width:1;"/><polygon fill="#181818" points="470.95,427.7669,476.4498,419.5967,471.8169,422.8426,468.571,418.2097,470.95,427.7669" style="stroke:#181818;stroke-width:1;"/><text fill="#000000" font-family="sans-serif" font-size="13" lengthAdjust="spacing" textLength="94.3833" x="500" y="283.4438">tracks restarts</text></g><!--link RunSupervisor to Git--><g class="link" data-entity-1="ent0007" data-entity-2="ent0011" data-link-type="dependency" data-source-line="118" id="lnk23"><path codeLine="118" d="M656.84,234.7569 C662.57,236.8169 668.31,238.6969 674,240.3769 C912.21,310.5069 994.72,215.9869 1230,295.3769 C1262.08,306.1969 1289.0495,318.3912 1319.6395,335.1712" fill="none" id="RunSupervisor-to-Git" style="stroke:#181818;stroke-width:1;stroke-dasharray:7,7;"/><polygon fill="#181818" points="1324.9,338.0569,1318.933,330.2214,1320.5162,335.6522,1315.0855,337.2354,1324.9,338.0569" style="stroke:#181818;stroke-width:1;"/><text fill="#000000" font-family="sans-serif" font-size="13" lengthAdjust="spacing" textLength="117.127" x="1203" y="283.4438">creates worktrees</text></g><!--link RunSupervisor to Blackboard--><g class="link" data-entity-1="ent0007" data-entity-2="ent0024" data-link-type="dependency" data-source-line="119" id="lnk25"><path codeLine="119" d="M623.18,240.5669 C641.24,257.3769 658.75,275.9469 673,295.3769 C707.86,342.9069 729.1811,403.4344 739.7011,438.1744" fill="none" id="RunSupervisor-to-Blackboard" style="stroke:#181818;stroke-width:1;stroke-dasharray:7,7;"/><polygon fill="#181818" points="741.44,443.9169,742.6599,434.1439,739.9909,439.1315,735.0033,436.4625,741.44,443.9169" style="stroke:#181818;stroke-width:1;"/><text fill="#000000" font-family="sans-serif" font-size="13" lengthAdjust="spacing" textLength="80.0439" x="667" y="283.4438">claims tasks</text></g><!--link Git to Worktree--><g class="link" data-entity-1="ent0011" data-entity-2="ent0012" data-link-type="dependency" data-source-line="121" id="lnk26"><path codeLine="121" d="M1417.66,598.5869 C1398.36,625.9169 1382.6212,648.1858 1367.1412,670.1058" fill="none" id="Git-to-Worktree" style="stroke:#181818;stroke-width:1;"/><polygon fill="#181818" points="1363.68,675.0069,1372.1391,669.9627,1366.5643,670.9227,1365.6044,665.3478,1363.68,675.0069" style="stroke:#181818;stroke-width:1;"/><text fill="#000000" font-family="sans-serif" font-size="13" lengthAdjust="spacing" textLength="25.8667" x="1394" y="641.3038">lists</text></g><!--link Git to RefConflictError--><g class="link" data-entity-1="ent0011" data-entity-2="ent0013" data-link-type="dependency" data-source-line="122" id="lnk27"><path codeLine="122" d="M1502.88,598.5869 C1501.58,625.9169 1500.5844,647.0936 1499.5444,669.0136" fill="none" id="Git-to-RefConflictError" style="stroke:#181818;stroke-width:1;stroke-dasharray:7,7;"/><polygon fill="#181818" points="1499.26,675.0069,1503.682,666.2066,1499.497,670.0125,1495.691,665.8274,1499.26,675.0069" style="stroke:#181818;stroke-width:1;"/><text fill="#000000" font-family="sans-serif" font-size="13" lengthAdjust="spacing" textLength="44.04" x="1502" y="641.3038">throws</text></g><!--link Git to RebaseConflictError--><g class="link" data-entity-1="ent0011" data-entity-2="ent0014" data-link-type="dependency" data-source-line="123" id="lnk28"><path codeLine="123" d="M1600.85,598.5869 C1625.37,633.1169 1646.2454,662.4953 1663.1154,686.2453" fill="none" id="Git-to-RebaseConflictError" style="stroke:#181818;stroke-width:1;stroke-dasharray:7,7;"/><polygon fill="#181818" points="1666.59,691.1369,1664.6392,681.4831,1663.6945,687.0606,1658.1171,686.1159,1666.59,691.1369" style="stroke:#181818;stroke-width:1;"/><text fill="#000000" font-family="sans-serif" font-size="13" lengthAdjust="spacing" textLength="44.04" x="1631" y="641.3038">throws</text></g><!--reverse link PR to Resolver--><g class="link" data-entity-1="ent0017" data-entity-2="ent0016" data-link-type="extension" data-source-line="125" id="lnk29"><path codeLine="125" d="M2007,201.6569 C2007,241.0469 2007,304.8669 2007,370.5469" fill="none" id="PR-backto-Resolver" style="stroke:#181818;stroke-width:1;stroke-dasharray:7,7;"/><polygon fill="none" points="2007,183.6569,2001,201.6569,2013,201.6569,2007,183.6569" style="stroke:#181818;stroke-width:1;"/></g><?plantuml-src dLVTRjis5BxNKn2v6EJDqROism1ZBP3OQHiiNGqxm2w2eA2aOvcp96eavIJh2kng3p3iBVO8k-kZz4bs3Yav-hE7r1UHnFF3Zz_vuOaH9WLs9NxZxECVVxEfZ87D14yKpoPiMHQWja9BnJvZBuLXliWDg9odN_84SZDck-z4c97d5JpQe8GTDImxDgCZzivZ-8jIhdLZYwdCLoAfXFGx8_NB6PimRPJ8avrW8H5oRtMkv2yGcOMKfYzS6cvWpiswBxgIoR1WMK2aPqBr9TEhovzuDe3XaexA8oEs90obJ1iYOGHFhxdUzEqkxY4gZQIjq7VzrH4BcL-B36H9vvkLYjEArNdlsOSbUiKZQ3ff4Ff5vGZyoDoFCG22JZ5ct14zPeMIMM7iiwPoX7jH1CSCb99gr7VME7F7x_-vgM2xH9Z1YfUf6KP-pF3KHMc6m_7sxS0HWo1u6lPz1YsKS2_CwSa2jE7ANAFf1jeumuSVuG7TPBouSJ1lMpOs4OUHl-9vd88VXcEcCCF7p62kK5Yg-5Xqo4CaYTnz28yMPVvOL5L4R6cDs8T_q95w-F3l4UEQjHGRX_WwO0j8X4PgtDOxoKb0XQGCMmF-3O4_Yhu9s3Jb8hEWTwkd0JilHHfNcRLR_nOT5VmkfqJTBNuNL1HObX5q_4ZKzm7MgIoguxvlT9gvzUosWMQtSLlgJhznwhLsAt8XyllvUOgEGybLt13flPtWc44MGXn3Z3Bx6hnO3eVNxkcsz_V7r_dlPUmnIoMFiKKQIbThFnf2GrhBZKXJVLY7sX1vWtlZEnZxtT7XVQ9W0QkELZiKT4EymOIoZKatGa6NGpiCfDealpZKl5iqJXMc7VmirSOe0B_cS8N4dYkUHsjBOyWrJ6MMYQ7YRxjueK2lFydFcJ4yMlUWX3jpQz4mM40cjrtiGufNM7srclOjaflRUc40oKimqr8fJ2E7tJ-KIqxT7chvwinNBghxjPtBYtl4fFsmmGrURqFiyZGgKoHufiJAM0OfrLK2XouJX5IVZsxZGqa9sBjzzAVhZhstPaZpCiV2zMEXiCuEsxJQQ0scaQN3Ku8Zih_kMEkMIsC7h2OQUL8HcGi2qTW9HKCp0fQWiOsc8pcBJCdJWrkvF1xUxOszMWyLzbmKa8eScjsrMkhKDTvoCjrsEckqIgYrrbxSe3TStJC9YiOxsxtcNAZ3gRc0hO2x9vbKSnZTmwLksr1JTEjx9mRq-MJBPHbYXc3adcnvLc1Vt7w28KuckHRKXb_pmZO3caUS-ktDhNjfGYoGBNCDAXEvuwPgEpUtZ_iCZvf76TxJgGxgwDOPO4UC-OBog3dJ_V1x40pCUbxl_u3Zu-UjMRWzhP2qPp9XfGOzeDc-z74mfpTT3oLz_S4fRyBexjrefjnwTwCWU6wljGcBxFsYsLtTmGSq7-SCCg39ITjvG7iUEI4KknOqOIdrNYiWsrxdG6Xh9U-Q6ls2tobvyuKBGnqgpykb0QP4iZPChjg3eKUTfnh7z0I_lcBFM2vLXXt7pcaV__oBA073Z6INiwiBr3azGQMA9tp-Mk8hTYvI3V7SShN2f5E0ioWgIxD6Uf-vBBOwgKoi79rwaCUCu7d_0G00?></g></svg>
